<?xml version="1.0" encoding="UTF-8"?>
<svg xmlns="http://www.w3.org/2000/svg" width="1240" height="1754" viewBox="0 0 1240 1754">
<defs><filter id="glow" x="-60%%" y="-60%%" width="220%%" height="220%%"><feGaussianBlur stdDeviation="8" result="b"/><feMerge><feMergeNode in="b"/><feMergeNode in="SourceGraphic"/></feMerge></filter>
<radialGradient id="vig" cx="50%%" cy="42%%" r="75%%"><stop offset="0%%" stop-color="#0a0420"/><stop offset="100%%" stop-color="#05010c"/></radialGradient></defs>
<rect width="1240" height="1754" fill="url(#vig)"/>
<circle cx="994" cy="550" r="1.57" fill="#ebf2ff" opacity="0.82"/>
<circle cx="1002" cy="595" r="1.25" fill="#b4d2ff" opacity="0.68"/>
<circle cx="955" cy="1571" r="0.54" fill="#ffdcf0" opacity="0.52"/>
<circle cx="175" cy="968" r="0.42" fill="#b4d2ff" opacity="0.45"/>
<circle cx="1037" cy="920" r="1.59" fill="#b4d2ff" opacity="0.53"/>
<circle cx="431" cy="152" r="1.1" fill="#ebf2ff" opacity="0.85"/>
<circle cx="536" cy="736" r="0.56" fill="#ffdcf0" opacity="0.71"/>
<circle cx="230" cy="1440" r="0.84" fill="#b4d2ff" opacity="0.94"/>
<circle cx="995" cy="807" r="0.43" fill="#ebf2ff" opacity="0.97"/>
<circle cx="923" cy="830" r="0.76" fill="#ebf2ff" opacity="0.65"/>
<circle cx="770" cy="647" r="0.55" fill="#b4d2ff" opacity="0.40"/>
<circle cx="692" cy="1718" r="0.88" fill="#ebf2ff" opacity="0.83"/>
<circle cx="593" cy="518" r="0.85" fill="#b4d2ff" opacity="0.63"/>
<circle cx="1206" cy="156" r="0.83" fill="#b4d2ff" opacity="0.85"/>
<circle cx="98" cy="574" r="0.52" fill="#ffdcf0" opacity="0.57"/>
<circle cx="304" cy="510" r="1.57" fill="#b4d2ff" opacity="0.71"/>
<circle cx="388" cy="1583" r="0.85" fill="#b4d2ff" opacity="0.93"/>
<circle cx="819" cy="1134" r="1.06" fill="#ffdcf0" opacity="0.45"/>
<circle cx="841" cy="923" r="1.14" fill="#ebf2ff" opacity="0.79"/>
<circle cx="586" cy="994" r="0.46" fill="#ffdcf0" opacity="0.48"/>
<circle cx="967" cy="849" r="0.81" fill="#b4d2ff" opacity="0.55"/>
<circle cx="532" cy="831" r="1.19" fill="#b4d2ff" opacity="0.69"/>
<circle cx="807" cy="245" r="0.6" fill="#ebf2ff" opacity="0.45"/>
<circle cx="1025" cy="1662" r="1.0" fill="#ebf2ff" opacity="0.67"/>
<circle cx="681" cy="1554" r="0.94" fill="#ebf2ff" opacity="0.73"/>
<circle cx="499" cy="185" r="0.61" fill="#ffdcf0" opacity="0.45"/>
<circle cx="489" cy="754" r="0.71" fill="#ffdcf0" opacity="0.52"/>
<circle cx="41" cy="1535" r="1.44" fill="#b4d2ff" opacity="0.65"/>
<circle cx="1073" cy="430" r="0.85" fill="#b4d2ff" opacity="0.85"/>
<circle cx="1020" cy="568" r="1.09" fill="#b4d2ff" opacity="0.48"/>
<circle cx="1030" cy="1083" r="1.16" fill="#ebf2ff" opacity="0.46"/>
<circle cx="508" cy="787" r="0.88" fill="#b4d2ff" opacity="0.66"/>
<circle cx="639" cy="1738" r="1.38" fill="#ebf2ff" opacity="0.48"/>
<circle cx="870" cy="1453" r="1.32" fill="#b4d2ff" opacity="0.98"/>
<circle cx="1003" cy="0" r="0.49" fill="#ffdcf0" opacity="0.91"/>
<circle cx="919" cy="508" r="1.34" fill="#ebf2ff" opacity="0.49"/>
<circle cx="1069" cy="1396" r="0.53" fill="#ffdcf0" opacity="0.82"/>
<circle cx="936" cy="174" r="1.06" fill="#ebf2ff" opacity="0.40"/>
<circle cx="257" cy="476" r="1.08" fill="#ebf2ff" opacity="0.79"/>
<circle cx="622" cy="262" r="1.15" fill="#ffdcf0" opacity="0.78"/>
<circle cx="229" cy="203" r="0.48" fill="#ffdcf0" opacity="0.97"/>
<circle cx="392" cy="794" r="0.71" fill="#ffdcf0" opacity="0.40"/>
<circle cx="1100" cy="617" r="1.6" fill="#b4d2ff" opacity="0.98"/>
<circle cx="496" cy="973" r="1.03" fill="#ffdcf0" opacity="0.55"/>
<circle cx="843" cy="1443" r="1.18" fill="#ebf2ff" opacity="0.41"/>
<circle cx="1020" cy="1381" r="1.18" fill="#ebf2ff" opacity="0.55"/>
<circle cx="869" cy="758" r="0.67" fill="#ebf2ff" opacity="0.82"/>
<circle cx="861" cy="742" r="1.22" fill="#ebf2ff" opacity="0.40"/>
<circle cx="598" cy="1513" r="1.41" fill="#ebf2ff" opacity="0.52"/>
<circle cx="410" cy="638" r="1.32" fill="#ebf2ff" opacity="0.54"/>
<circle cx="453" cy="542" r="1.31" fill="#b4d2ff" opacity="0.47"/>
<circle cx="1015" cy="1249" r="0.62" fill="#ebf2ff" opacity="0.69"/>
<circle cx="115" cy="1218" r="0.58" fill="#b4d2ff" opacity="0.43"/>
<circle cx="48" cy="1220" r="0.57" fill="#ebf2ff" opacity="0.83"/>
<circle cx="377" cy="805" r="0.94" fill="#ffdcf0" opacity="0.93"/>
<circle cx="231" cy="162" r="1.52" fill="#b4d2ff" opacity="0.51"/>
<circle cx="1074" cy="1528" r="0.96" fill="#b4d2ff" opacity="0.80"/>
<circle cx="775" cy="1718" r="0.85" fill="#b4d2ff" opacity="0.67"/>
<circle cx="223" cy="5" r="0.49" fill="#ebf2ff" opacity="0.61"/>
<circle cx="253" cy="1149" r="1.56" fill="#ebf2ff" opacity="0.63"/>
<circle cx="632" cy="1683" r="1.36" fill="#ebf2ff" opacity="0.43"/>
<circle cx="969" cy="400" r="0.85" fill="#b4d2ff" opacity="0.52"/>
<circle cx="745" cy="1510" r="1.48" fill="#ebf2ff" opacity="0.78"/>
<circle cx="507" cy="1662" r="1.15" fill="#b4d2ff" opacity="0.42"/>
<circle cx="71" cy="950" r="0.48" fill="#ebf2ff" opacity="0.55"/>
<circle cx="128" cy="1240" r="0.81" fill="#b4d2ff" opacity="0.60"/>
<circle cx="89" cy="536" r="1.3" fill="#ffdcf0" opacity="0.59"/>
<circle cx="564" cy="609" r="0.4" fill="#ffdcf0" opacity="0.95"/>
<circle cx="133" cy="49" r="1.39" fill="#ebf2ff" opacity="0.69"/>
<circle cx="953" cy="1589" r="0.86" fill="#b4d2ff" opacity="0.95"/>
<circle cx="1010" cy="271" r="1.51" fill="#ebf2ff" opacity="0.41"/>
<circle cx="621" cy="1685" r="1.23" fill="#ebf2ff" opacity="0.76"/>
<circle cx="671" cy="654" r="0.95" fill="#ffdcf0" opacity="0.45"/>
<circle cx="404" cy="802" r="1.3" fill="#ebf2ff" opacity="0.64"/>
<circle cx="69" cy="986" r="1.06" fill="#b4d2ff" opacity="0.50"/>
<circle cx="873" cy="215" r="1.59" fill="#b4d2ff" opacity="0.77"/>
<circle cx="426" cy="197" r="0.91" fill="#ffdcf0" opacity="0.98"/>
<circle cx="354" cy="479" r="0.56" fill="#b4d2ff" opacity="0.77"/>
<circle cx="481" cy="1531" r="1.05" fill="#ffdcf0" opacity="0.86"/>
<circle cx="601" cy="601" r="0.74" fill="#b4d2ff" opacity="0.62"/>
<circle cx="533" cy="407" r="0.93" fill="#ebf2ff" opacity="0.55"/>
<circle cx="314" cy="576" r="1.46" fill="#ffdcf0" opacity="0.51"/>
<circle cx="132" cy="811" r="0.7" fill="#ebf2ff" opacity="0.70"/>
<circle cx="473" cy="1330" r="1.37" fill="#ffdcf0" opacity="0.68"/>
<circle cx="75" cy="209" r="0.41" fill="#ebf2ff" opacity="0.90"/>
<circle cx="765" cy="82" r="1.45" fill="#ebf2ff" opacity="0.47"/>
<circle cx="388" cy="1229" r="1.57" fill="#ffdcf0" opacity="0.52"/>
<circle cx="153" cy="762" r="1.02" fill="#ebf2ff" opacity="0.67"/>
<circle cx="532" cy="1587" r="1.33" fill="#ebf2ff" opacity="0.46"/>
<circle cx="1220" cy="1453" r="1.14" fill="#ebf2ff" opacity="0.42"/>
<circle cx="696" cy="289" r="0.45" fill="#b4d2ff" opacity="0.42"/>
<circle cx="416" cy="1668" r="0.41" fill="#b4d2ff" opacity="0.65"/>
<circle cx="761" cy="379" r="1.15" fill="#ebf2ff" opacity="0.52"/>
<circle cx="1015" cy="1122" r="0.98" fill="#b4d2ff" opacity="0.46"/>
<circle cx="809" cy="1359" r="1.06" fill="#ffdcf0" opacity="0.72"/>
<circle cx="335" cy="814" r="1.23" fill="#b4d2ff" opacity="0.99"/>
<circle cx="629" cy="855" r="1.54" fill="#b4d2ff" opacity="0.85"/>
<circle cx="731" cy="848" r="0.9" fill="#b4d2ff" opacity="0.79"/>
<circle cx="800" cy="1491" r="0.89" fill="#ebf2ff" opacity="0.66"/>
<circle cx="320" cy="867" r="0.54" fill="#ebf2ff" opacity="0.64"/>
<circle cx="746" cy="943" r="1.33" fill="#ebf2ff" opacity="0.41"/>
<circle cx="1129" cy="291" r="1.17" fill="#b4d2ff" opacity="0.45"/>
<circle cx="759" cy="1509" r="1.01" fill="#ebf2ff" opacity="0.61"/>
<circle cx="331" cy="1067" r="0.61" fill="#ebf2ff" opacity="0.47"/>
<circle cx="1004" cy="1543" r="1.37" fill="#ebf2ff" opacity="0.58"/>
<circle cx="89" cy="988" r="0.78" fill="#ffdcf0" opacity="0.96"/>
<circle cx="794" cy="176" r="1.49" fill="#ffdcf0" opacity="0.81"/>
<circle cx="328" cy="1311" r="1.34" fill="#ebf2ff" opacity="0.77"/>
<circle cx="401" cy="1698" r="0.97" fill="#ffdcf0" opacity="0.53"/>
<circle cx="818" cy="1060" r="0.59" fill="#b4d2ff" opacity="0.47"/>
<circle cx="505" cy="1484" r="1.38" fill="#ebf2ff" opacity="0.42"/>
<circle cx="1151" cy="1725" r="1.31" fill="#ebf2ff" opacity="0.80"/>
<circle cx="663" cy="241" r="0.87" fill="#b4d2ff" opacity="0.73"/>
<circle cx="627" cy="1329" r="0.9" fill="#ffdcf0" opacity="0.55"/>
<circle cx="797" cy="1349" r="0.84" fill="#ffdcf0" opacity="0.66"/>
<circle cx="47" cy="7" r="1.14" fill="#b4d2ff" opacity="0.68"/>
<circle cx="915" cy="1563" r="1.14" fill="#b4d2ff" opacity="0.90"/>
<circle cx="969" cy="819" r="0.53" fill="#ebf2ff" opacity="0.62"/>
<circle cx="748" cy="187" r="1.36" fill="#ffdcf0" opacity="0.71"/>
<circle cx="83" cy="83" r="1.16" fill="#ebf2ff" opacity="0.95"/>
<circle cx="642" cy="1592" r="1.26" fill="#ebf2ff" opacity="0.43"/>
<circle cx="1032" cy="773" r="1.18" fill="#ebf2ff" opacity="0.42"/>
<circle cx="135" cy="1257" r="1.28" fill="#ebf2ff" opacity="0.52"/>
<circle cx="1007" cy="589" r="1.55" fill="#ebf2ff" opacity="0.81"/>
<circle cx="452" cy="134" r="1.4" fill="#ffdcf0" opacity="0.85"/>
<circle cx="325" cy="663" r="1.48" fill="#b4d2ff" opacity="0.94"/>
<circle cx="934" cy="294" r="0.7" fill="#b4d2ff" opacity="0.52"/>
<circle cx="538" cy="1261" r="1.01" fill="#b4d2ff" opacity="0.62"/>
<circle cx="407" cy="372" r="0.88" fill="#ffdcf0" opacity="0.96"/>
<circle cx="671" cy="771" r="0.6" fill="#b4d2ff" opacity="0.47"/>
<circle cx="1086" cy="99" r="1.16" fill="#b4d2ff" opacity="0.98"/>
<circle cx="927" cy="1137" r="1.03" fill="#ffdcf0" opacity="0.93"/>
<circle cx="214" cy="516" r="1.59" fill="#ffdcf0" opacity="0.91"/>
<circle cx="760" cy="542" r="0.85" fill="#b4d2ff" opacity="0.75"/>
<circle cx="737" cy="677" r="1.32" fill="#b4d2ff" opacity="0.54"/>
<circle cx="98" cy="606" r="1.38" fill="#b4d2ff" opacity="0.59"/>
<circle cx="1199" cy="1359" r="1.47" fill="#ffdcf0" opacity="0.40"/>
<circle cx="69" cy="453" r="0.58" fill="#ffdcf0" opacity="0.78"/>
<circle cx="855" cy="1049" r="0.84" fill="#ebf2ff" opacity="0.48"/>
<circle cx="465" cy="1254" r="1.18" fill="#ebf2ff" opacity="0.43"/>
<circle cx="1161" cy="726" r="0.76" fill="#ffdcf0" opacity="0.61"/>
<circle cx="459" cy="846" r="1.1" fill="#ffdcf0" opacity="0.48"/>
<circle cx="750" cy="1277" r="1.39" fill="#ebf2ff" opacity="0.48"/>
<circle cx="498" cy="1448" r="0.58" fill="#ebf2ff" opacity="0.44"/>
<circle cx="296" cy="1362" r="1.34" fill="#b4d2ff" opacity="0.89"/>
<circle cx="23" cy="114" r="1.17" fill="#ffdcf0" opacity="0.94"/>
<circle cx="1217" cy="1322" r="1.09" fill="#ffdcf0" opacity="0.96"/>
<circle cx="1009" cy="508" r="0.6" fill="#ebf2ff" opacity="0.43"/>
<circle cx="1088" cy="51" r="0.89" fill="#ebf2ff" opacity="0.50"/>
<circle cx="214" cy="25" r="1.14" fill="#ffdcf0" opacity="0.96"/>
<circle cx="291" cy="846" r="0.64" fill="#ffdcf0" opacity="0.79"/>
<circle cx="850" cy="1665" r="1.14" fill="#ffdcf0" opacity="0.59"/>
<circle cx="614" cy="1281" r="0.46" fill="#ffdcf0" opacity="0.87"/>
<circle cx="1102" cy="13" r="0.85" fill="#b4d2ff" opacity="0.85"/>
<circle cx="952" cy="164" r="1.29" fill="#b4d2ff" opacity="0.51"/>
<circle cx="215" cy="535" r="0.68" fill="#ebf2ff" opacity="0.47"/>
<circle cx="539" cy="1457" r="0.46" fill="#ffdcf0" opacity="0.73"/>
<circle cx="893" cy="1404" r="1.35" fill="#ffdcf0" opacity="0.98"/>
<circle cx="605" cy="1314" r="1.51" fill="#ebf2ff" opacity="0.45"/>
<circle cx="1039" cy="31" r="0.6" fill="#ebf2ff" opacity="0.91"/>
<circle cx="551" cy="454" r="190" fill="none" stroke="#3cdcff" stroke-width="2" opacity="0.8"/>
<circle cx="551" cy="454" r="114" fill="none" stroke="#3cdcff" stroke-width="1" opacity="0.8"/>
<g filter="url(#glow)"><circle cx="721" cy="512" r="12" fill="#3cdcff"/></g>
<circle cx="768" cy="396" r="186" fill="none" stroke="#3cdcff" stroke-width="2" opacity="0.8"/>
<circle cx="768" cy="396" r="111" fill="none" stroke="#3cdcff" stroke-width="1" opacity="0.8"/>
<g filter="url(#glow)"><circle cx="924" cy="327" r="12" fill="#3cdcff"/></g>
<circle cx="439" cy="338" r="151" fill="none" stroke="#ffd25a" stroke-width="2" opacity="0.8"/>
<circle cx="439" cy="338" r="90" fill="none" stroke="#ffd25a" stroke-width="1" opacity="0.8"/>
<g filter="url(#glow)"><circle cx="308" cy="389" r="12" fill="#ffd25a"/></g>
<circle cx="466" cy="392" r="210" fill="none" stroke="#ffd25a" stroke-width="2" opacity="0.8"/>
<circle cx="466" cy="392" r="126" fill="none" stroke="#ffd25a" stroke-width="1" opacity="0.8"/>
<g filter="url(#glow)"><circle cx="661" cy="445" r="12" fill="#ffd25a"/></g>
<circle cx="799" cy="426" r="168" fill="none" stroke="#3cdcff" stroke-width="2" opacity="0.8"/>
<circle cx="799" cy="426" r="100" fill="none" stroke="#3cdcff" stroke-width="1" opacity="0.8"/>
<g filter="url(#glow)"><circle cx="651" cy="372" r="12" fill="#3cdcff"/></g>
<circle cx="626" cy="350" r="168" fill="none" stroke="#3cdcff" stroke-width="2" opacity="0.8"/>
<circle cx="626" cy="350" r="100" fill="none" stroke="#3cdcff" stroke-width="1" opacity="0.8"/>
<g filter="url(#glow)"><circle cx="469" cy="310" r="12" fill="#3cdcff"/></g>
<text x="620" y="1634" font-family="Consolas, monospace" font-size="36" font-weight="bold" fill="#a56eff" text-anchor="middle" filter="url(#glow)">GATE GEOMETRY · ORBITAL VERIFICATION</text>
</svg>