<?xml version="1.0" encoding="UTF-8"?>
<svg xmlns="http://www.w3.org/2000/svg" width="1240" height="1754" viewBox="0 0 1240 1754">
<defs><filter id="glow" x="-60%%" y="-60%%" width="220%%" height="220%%"><feGaussianBlur stdDeviation="8" result="b"/><feMerge><feMergeNode in="b"/><feMergeNode in="SourceGraphic"/></feMerge></filter>
<radialGradient id="vig" cx="50%%" cy="42%%" r="75%%"><stop offset="0%%" stop-color="#0a0420"/><stop offset="100%%" stop-color="#05010c"/></radialGradient></defs>
<rect width="1240" height="1754" fill="url(#vig)"/>
<circle cx="1008" cy="1621" r="0.52" fill="#ebf2ff" opacity="0.59"/>
<circle cx="612" cy="261" r="0.99" fill="#ffdcf0" opacity="0.45"/>
<circle cx="82" cy="816" r="1.12" fill="#b4d2ff" opacity="0.73"/>
<circle cx="101" cy="816" r="0.7" fill="#ebf2ff" opacity="0.43"/>
<circle cx="972" cy="1246" r="1.17" fill="#ebf2ff" opacity="0.87"/>
<circle cx="1113" cy="1252" r="0.78" fill="#ebf2ff" opacity="0.78"/>
<circle cx="1221" cy="1394" r="0.48" fill="#ebf2ff" opacity="0.80"/>
<circle cx="937" cy="1280" r="1.16" fill="#ebf2ff" opacity="0.80"/>
<circle cx="75" cy="863" r="1.17" fill="#ffdcf0" opacity="0.41"/>
<circle cx="284" cy="1610" r="0.71" fill="#ffdcf0" opacity="0.55"/>
<circle cx="618" cy="378" r="0.82" fill="#b4d2ff" opacity="0.41"/>
<circle cx="1159" cy="1314" r="0.98" fill="#ebf2ff" opacity="0.70"/>
<circle cx="1069" cy="80" r="1.22" fill="#b4d2ff" opacity="0.75"/>
<circle cx="828" cy="914" r="0.47" fill="#ffdcf0" opacity="0.63"/>
<circle cx="1212" cy="1350" r="1.38" fill="#b4d2ff" opacity="0.86"/>
<circle cx="1123" cy="208" r="0.48" fill="#b4d2ff" opacity="0.53"/>
<circle cx="310" cy="1283" r="0.42" fill="#ebf2ff" opacity="0.41"/>
<circle cx="249" cy="180" r="0.62" fill="#ebf2ff" opacity="0.48"/>
<circle cx="36" cy="564" r="1.12" fill="#ebf2ff" opacity="0.67"/>
<circle cx="383" cy="102" r="0.77" fill="#ffdcf0" opacity="0.83"/>
<circle cx="296" cy="1494" r="1.16" fill="#b4d2ff" opacity="0.78"/>
<circle cx="1020" cy="943" r="1.07" fill="#b4d2ff" opacity="0.95"/>
<circle cx="107" cy="1468" r="0.43" fill="#ebf2ff" opacity="0.41"/>
<circle cx="163" cy="796" r="0.71" fill="#ffdcf0" opacity="0.76"/>
<circle cx="996" cy="1247" r="0.46" fill="#b4d2ff" opacity="0.97"/>
<circle cx="898" cy="962" r="1.08" fill="#ebf2ff" opacity="0.98"/>
<circle cx="239" cy="743" r="1.35" fill="#ebf2ff" opacity="0.78"/>
<circle cx="855" cy="976" r="0.79" fill="#b4d2ff" opacity="0.97"/>
<circle cx="1160" cy="683" r="0.69" fill="#ebf2ff" opacity="0.77"/>
<circle cx="1228" cy="680" r="1.27" fill="#ffdcf0" opacity="0.99"/>
<circle cx="309" cy="1231" r="1.23" fill="#ffdcf0" opacity="0.66"/>
<circle cx="504" cy="771" r="0.79" fill="#b4d2ff" opacity="0.76"/>
<circle cx="479" cy="1653" r="0.85" fill="#ffdcf0" opacity="0.40"/>
<circle cx="538" cy="548" r="0.82" fill="#ffdcf0" opacity="0.95"/>
<circle cx="86" cy="590" r="1.23" fill="#ffdcf0" opacity="0.49"/>
<circle cx="1121" cy="1402" r="1.18" fill="#b4d2ff" opacity="0.61"/>
<circle cx="174" cy="1105" r="0.95" fill="#b4d2ff" opacity="0.52"/>
<circle cx="479" cy="633" r="1.01" fill="#ffdcf0" opacity="0.64"/>
<circle cx="423" cy="521" r="0.99" fill="#ebf2ff" opacity="0.87"/>
<circle cx="941" cy="1107" r="0.49" fill="#b4d2ff" opacity="0.86"/>
<circle cx="476" cy="815" r="0.98" fill="#b4d2ff" opacity="0.93"/>
<circle cx="1068" cy="657" r="0.88" fill="#ffdcf0" opacity="0.52"/>
<circle cx="435" cy="393" r="0.49" fill="#ffdcf0" opacity="0.57"/>
<circle cx="1183" cy="1155" r="0.76" fill="#ffdcf0" opacity="0.91"/>
<circle cx="504" cy="91" r="1.32" fill="#b4d2ff" opacity="0.62"/>
<circle cx="217" cy="761" r="1.03" fill="#ebf2ff" opacity="0.49"/>
<circle cx="1223" cy="62" r="0.74" fill="#ffdcf0" opacity="0.76"/>
<circle cx="192" cy="68" r="0.6" fill="#ffdcf0" opacity="0.69"/>
<circle cx="1161" cy="437" r="0.66" fill="#b4d2ff" opacity="0.66"/>
<circle cx="915" cy="1571" r="0.99" fill="#ffdcf0" opacity="0.98"/>
<circle cx="520" cy="1727" r="0.44" fill="#ebf2ff" opacity="1.00"/>
<circle cx="774" cy="171" r="0.43" fill="#ebf2ff" opacity="0.73"/>
<circle cx="938" cy="997" r="1.35" fill="#ebf2ff" opacity="0.92"/>
<circle cx="813" cy="245" r="1.11" fill="#ebf2ff" opacity="0.55"/>
<circle cx="1156" cy="477" r="1.04" fill="#ffdcf0" opacity="0.70"/>
<circle cx="374" cy="918" r="1.25" fill="#b4d2ff" opacity="0.98"/>
<circle cx="454" cy="352" r="0.44" fill="#b4d2ff" opacity="0.96"/>
<circle cx="121" cy="1132" r="1.3" fill="#ebf2ff" opacity="0.55"/>
<circle cx="1051" cy="1453" r="1.14" fill="#b4d2ff" opacity="0.43"/>
<circle cx="296" cy="650" r="1.15" fill="#ebf2ff" opacity="0.81"/>
<circle cx="611" cy="1207" r="0.99" fill="#ffdcf0" opacity="0.46"/>
<circle cx="663" cy="761" r="0.66" fill="#ebf2ff" opacity="0.62"/>
<circle cx="777" cy="345" r="0.84" fill="#ebf2ff" opacity="0.95"/>
<circle cx="25" cy="958" r="1.12" fill="#ebf2ff" opacity="0.88"/>
<circle cx="321" cy="1705" r="0.62" fill="#ffdcf0" opacity="0.92"/>
<circle cx="286" cy="1593" r="0.85" fill="#ebf2ff" opacity="0.96"/>
<circle cx="788" cy="1724" r="0.42" fill="#ebf2ff" opacity="0.67"/>
<circle cx="695" cy="660" r="1.22" fill="#b4d2ff" opacity="0.47"/>
<circle cx="749" cy="292" r="0.73" fill="#ffdcf0" opacity="0.43"/>
<circle cx="924" cy="1133" r="1.29" fill="#b4d2ff" opacity="0.92"/>
<circle cx="545" cy="856" r="0.81" fill="#ebf2ff" opacity="0.42"/>
<circle cx="1169" cy="1719" r="0.7" fill="#ebf2ff" opacity="0.56"/>
<circle cx="223" cy="651" r="0.86" fill="#b4d2ff" opacity="0.47"/>
<circle cx="1051" cy="116" r="1.03" fill="#ffdcf0" opacity="0.96"/>
<circle cx="1146" cy="977" r="1.24" fill="#ebf2ff" opacity="0.55"/>
<circle cx="412" cy="746" r="0.83" fill="#b4d2ff" opacity="1.00"/>
<circle cx="487" cy="199" r="0.79" fill="#b4d2ff" opacity="0.94"/>
<circle cx="117" cy="1704" r="1.13" fill="#b4d2ff" opacity="0.49"/>
<circle cx="32" cy="905" r="1.21" fill="#b4d2ff" opacity="0.71"/>
<circle cx="907" cy="3" r="1.19" fill="#ffdcf0" opacity="0.57"/>
<circle cx="737" cy="891" r="0.44" fill="#b4d2ff" opacity="0.53"/>
<circle cx="1170" cy="370" r="0.54" fill="#ebf2ff" opacity="0.71"/>
<circle cx="471" cy="1457" r="0.58" fill="#ffdcf0" opacity="0.45"/>
<circle cx="179" cy="1246" r="1.13" fill="#b4d2ff" opacity="0.51"/>
<circle cx="280" cy="1254" r="1.07" fill="#ffdcf0" opacity="0.89"/>
<circle cx="1193" cy="630" r="0.6" fill="#ebf2ff" opacity="0.82"/>
<circle cx="1064" cy="835" r="1.24" fill="#ebf2ff" opacity="0.71"/>
<circle cx="711" cy="686" r="0.68" fill="#ffdcf0" opacity="0.92"/>
<circle cx="1009" cy="184" r="0.42" fill="#b4d2ff" opacity="0.48"/>
<circle cx="545" cy="508" r="0.59" fill="#b4d2ff" opacity="0.42"/>
<circle cx="760" cy="1177" r="0.99" fill="#ebf2ff" opacity="0.61"/>
<circle cx="912" cy="1056" r="0.47" fill="#b4d2ff" opacity="0.83"/>
<circle cx="657" cy="1595" r="1.11" fill="#b4d2ff" opacity="0.75"/>
<circle cx="125" cy="597" r="1.27" fill="#ffdcf0" opacity="0.70"/>
<circle cx="1051" cy="52" r="0.93" fill="#ffdcf0" opacity="0.48"/>
<circle cx="498" cy="181" r="0.62" fill="#ebf2ff" opacity="0.50"/>
<circle cx="638" cy="512" r="0.96" fill="#ebf2ff" opacity="0.41"/>
<circle cx="399" cy="535" r="0.42" fill="#ffdcf0" opacity="0.78"/>
<circle cx="950" cy="1070" r="0.64" fill="#b4d2ff" opacity="0.46"/>
<circle cx="192" cy="1468" r="0.58" fill="#b4d2ff" opacity="0.47"/>
<circle cx="1010" cy="1199" r="0.9" fill="#b4d2ff" opacity="0.47"/>
<circle cx="248" cy="830" r="1.28" fill="#ffdcf0" opacity="0.76"/>
<circle cx="464" cy="301" r="1.07" fill="#b4d2ff" opacity="0.85"/>
<circle cx="336" cy="1691" r="0.42" fill="#ffdcf0" opacity="0.63"/>
<circle cx="861" cy="1222" r="1.24" fill="#ffdcf0" opacity="0.42"/>
<circle cx="106" cy="1591" r="0.76" fill="#b4d2ff" opacity="0.54"/>
<circle cx="686" cy="1465" r="0.84" fill="#ffdcf0" opacity="0.88"/>
<circle cx="656" cy="1669" r="0.8" fill="#ffdcf0" opacity="0.43"/>
<circle cx="1059" cy="300" r="1.36" fill="#b4d2ff" opacity="0.55"/>
<circle cx="864" cy="1358" r="1.03" fill="#b4d2ff" opacity="0.47"/>
<circle cx="383" cy="141" r="0.72" fill="#ebf2ff" opacity="0.70"/>
<circle cx="42" cy="461" r="0.54" fill="#b4d2ff" opacity="0.87"/>
<circle cx="929" cy="1296" r="0.45" fill="#ebf2ff" opacity="0.42"/>
<circle cx="544" cy="1389" r="1.02" fill="#ffdcf0" opacity="0.73"/>
<circle cx="73" cy="1272" r="0.5" fill="#ebf2ff" opacity="0.71"/>
<circle cx="888" cy="484" r="1.35" fill="#b4d2ff" opacity="0.47"/>
<circle cx="711" cy="1326" r="0.57" fill="#ebf2ff" opacity="0.76"/>
<circle cx="1052" cy="549" r="0.48" fill="#ffdcf0" opacity="0.72"/>
<circle cx="303" cy="901" r="0.52" fill="#ebf2ff" opacity="0.93"/>
<circle cx="832" cy="1182" r="0.69" fill="#ebf2ff" opacity="0.84"/>
<g filter="url(#glow)"><polyline points="300,400 520,300 760,460 900,640 640,760 380,720 300,400" fill="none" stroke="#46ff78" stroke-width="3" stroke-linecap="round" stroke-linejoin="round"/></g>
<g filter="url(#glow)"><circle cx="760" cy="460" r="18" fill="#ff38d6"/></g>
<g filter="url(#glow)"><circle cx="520" cy="300" r="12" fill="#3cdcff"/></g>
<g filter="url(#glow)"><circle cx="900" cy="640" r="12" fill="#ffd25a"/></g>
<g filter="url(#glow)"><line x1="760" y1="460" x2="640" y2="760" stroke="#ff38d6" stroke-width="3" stroke-linecap="round"/></g>
<text x="620" y="1200" font-family="Consolas, monospace" font-size="44" font-weight="bold" fill="#ebf2ff" text-anchor="middle" filter="url(#glow)">COME FROM (99999)</text>
<text x="620" y="1280" font-family="Consolas, monospace" font-size="34" font-weight="bold" fill="#46ff78" text-anchor="middle" filter="url(#glow)">THE INTERCAL TRIPWIRE</text>
</svg>