<?xml version="1.0" encoding="UTF-8"?>
<svg xmlns="http://www.w3.org/2000/svg" width="1240" height="1754" viewBox="0 0 1240 1754">
<defs><filter id="glow" x="-60%%" y="-60%%" width="220%%" height="220%%"><feGaussianBlur stdDeviation="8" result="b"/><feMerge><feMergeNode in="b"/><feMergeNode in="SourceGraphic"/></feMerge></filter>
<radialGradient id="vig" cx="50%%" cy="42%%" r="75%%"><stop offset="0%%" stop-color="#0a0420"/><stop offset="100%%" stop-color="#05010c"/></radialGradient></defs>
<rect width="1240" height="1754" fill="url(#vig)"/>
<circle cx="601" cy="1179" r="0.54" fill="#b4d2ff" opacity="0.80"/>
<circle cx="303" cy="679" r="1.55" fill="#ebf2ff" opacity="0.50"/>
<circle cx="480" cy="1692" r="0.92" fill="#ebf2ff" opacity="0.73"/>
<circle cx="626" cy="1539" r="1.24" fill="#b4d2ff" opacity="0.79"/>
<circle cx="1100" cy="516" r="0.6" fill="#ffdcf0" opacity="0.44"/>
<circle cx="1062" cy="1687" r="1.52" fill="#ffdcf0" opacity="0.45"/>
<circle cx="1145" cy="133" r="1.55" fill="#ebf2ff" opacity="0.98"/>
<circle cx="813" cy="458" r="1.22" fill="#ffdcf0" opacity="0.70"/>
<circle cx="186" cy="950" r="0.56" fill="#ffdcf0" opacity="0.80"/>
<circle cx="622" cy="297" r="0.84" fill="#b4d2ff" opacity="0.95"/>
<circle cx="460" cy="391" r="0.84" fill="#b4d2ff" opacity="0.61"/>
<circle cx="851" cy="377" r="0.41" fill="#b4d2ff" opacity="0.96"/>
<circle cx="400" cy="905" r="0.71" fill="#ffdcf0" opacity="0.48"/>
<circle cx="870" cy="113" r="0.56" fill="#ebf2ff" opacity="0.90"/>
<circle cx="694" cy="1133" r="0.64" fill="#b4d2ff" opacity="0.47"/>
<circle cx="657" cy="442" r="0.7" fill="#ffdcf0" opacity="0.79"/>
<circle cx="1049" cy="871" r="0.72" fill="#b4d2ff" opacity="0.59"/>
<circle cx="337" cy="1488" r="1.06" fill="#b4d2ff" opacity="0.51"/>
<circle cx="1096" cy="1406" r="1.33" fill="#ebf2ff" opacity="0.92"/>
<circle cx="1143" cy="385" r="0.92" fill="#ebf2ff" opacity="0.90"/>
<circle cx="25" cy="336" r="0.57" fill="#ebf2ff" opacity="0.98"/>
<circle cx="70" cy="73" r="1.22" fill="#ffdcf0" opacity="0.77"/>
<circle cx="1143" cy="164" r="0.78" fill="#b4d2ff" opacity="0.71"/>
<circle cx="111" cy="1425" r="0.75" fill="#ebf2ff" opacity="0.90"/>
<circle cx="389" cy="958" r="0.96" fill="#b4d2ff" opacity="0.75"/>
<circle cx="968" cy="507" r="1.11" fill="#ebf2ff" opacity="0.84"/>
<circle cx="950" cy="132" r="1.56" fill="#ebf2ff" opacity="0.80"/>
<circle cx="923" cy="253" r="1.35" fill="#ffdcf0" opacity="0.58"/>
<circle cx="836" cy="1058" r="1.26" fill="#b4d2ff" opacity="0.80"/>
<circle cx="93" cy="637" r="0.42" fill="#b4d2ff" opacity="0.44"/>
<circle cx="1087" cy="943" r="0.57" fill="#ebf2ff" opacity="0.56"/>
<circle cx="856" cy="1442" r="1.05" fill="#ebf2ff" opacity="0.83"/>
<circle cx="473" cy="1009" r="0.75" fill="#ffdcf0" opacity="0.56"/>
<circle cx="439" cy="1135" r="0.5" fill="#b4d2ff" opacity="0.74"/>
<circle cx="164" cy="396" r="0.74" fill="#b4d2ff" opacity="0.43"/>
<circle cx="132" cy="445" r="0.9" fill="#ebf2ff" opacity="0.58"/>
<circle cx="464" cy="284" r="0.98" fill="#b4d2ff" opacity="0.86"/>
<circle cx="388" cy="111" r="1.07" fill="#ffdcf0" opacity="0.85"/>
<circle cx="722" cy="903" r="0.87" fill="#ebf2ff" opacity="0.52"/>
<circle cx="959" cy="752" r="1.57" fill="#b4d2ff" opacity="0.72"/>
<circle cx="1184" cy="970" r="0.4" fill="#ffdcf0" opacity="0.59"/>
<circle cx="305" cy="560" r="1.29" fill="#ebf2ff" opacity="0.49"/>
<circle cx="553" cy="1039" r="0.66" fill="#b4d2ff" opacity="0.97"/>
<circle cx="949" cy="1064" r="1.48" fill="#b4d2ff" opacity="0.96"/>
<circle cx="269" cy="630" r="0.51" fill="#b4d2ff" opacity="0.66"/>
<circle cx="377" cy="904" r="1.01" fill="#ebf2ff" opacity="0.62"/>
<circle cx="591" cy="79" r="0.85" fill="#b4d2ff" opacity="0.52"/>
<circle cx="537" cy="40" r="1.21" fill="#ebf2ff" opacity="0.58"/>
<circle cx="1230" cy="1582" r="1.32" fill="#ffdcf0" opacity="0.57"/>
<circle cx="114" cy="1441" r="1.54" fill="#b4d2ff" opacity="0.57"/>
<circle cx="187" cy="403" r="1.09" fill="#b4d2ff" opacity="0.44"/>
<circle cx="48" cy="1311" r="0.78" fill="#ebf2ff" opacity="0.47"/>
<circle cx="152" cy="636" r="0.52" fill="#b4d2ff" opacity="0.65"/>
<circle cx="1162" cy="1626" r="1.27" fill="#ebf2ff" opacity="0.56"/>
<circle cx="1170" cy="621" r="0.6" fill="#b4d2ff" opacity="0.49"/>
<circle cx="832" cy="1259" r="1.35" fill="#ebf2ff" opacity="0.65"/>
<circle cx="440" cy="1531" r="0.95" fill="#ffdcf0" opacity="0.72"/>
<circle cx="1197" cy="1548" r="1.59" fill="#b4d2ff" opacity="0.58"/>
<circle cx="1114" cy="292" r="1.05" fill="#ffdcf0" opacity="0.96"/>
<circle cx="900" cy="373" r="1.15" fill="#ffdcf0" opacity="0.61"/>
<circle cx="1086" cy="602" r="1.4" fill="#b4d2ff" opacity="0.81"/>
<circle cx="321" cy="1622" r="0.92" fill="#b4d2ff" opacity="0.55"/>
<circle cx="271" cy="534" r="0.8" fill="#ebf2ff" opacity="0.62"/>
<circle cx="1004" cy="790" r="0.47" fill="#ffdcf0" opacity="0.76"/>
<circle cx="518" cy="364" r="1.31" fill="#b4d2ff" opacity="0.99"/>
<circle cx="710" cy="247" r="0.82" fill="#ffdcf0" opacity="0.78"/>
<circle cx="971" cy="1423" r="0.72" fill="#ebf2ff" opacity="0.68"/>
<circle cx="1079" cy="710" r="1.22" fill="#ffdcf0" opacity="0.96"/>
<circle cx="458" cy="300" r="0.58" fill="#ffdcf0" opacity="0.65"/>
<circle cx="715" cy="239" r="1.2" fill="#ffdcf0" opacity="0.86"/>
<circle cx="714" cy="53" r="1.03" fill="#b4d2ff" opacity="0.87"/>
<circle cx="346" cy="448" r="1.0" fill="#ebf2ff" opacity="0.80"/>
<circle cx="387" cy="1726" r="1.25" fill="#b4d2ff" opacity="0.61"/>
<circle cx="464" cy="633" r="0.66" fill="#ebf2ff" opacity="0.83"/>
<circle cx="730" cy="679" r="1.22" fill="#ffdcf0" opacity="0.95"/>
<circle cx="361" cy="1560" r="0.56" fill="#ffdcf0" opacity="0.99"/>
<circle cx="1020" cy="1368" r="1.48" fill="#ffdcf0" opacity="0.67"/>
<circle cx="703" cy="830" r="1.44" fill="#b4d2ff" opacity="0.83"/>
<circle cx="602" cy="937" r="1.24" fill="#ebf2ff" opacity="0.81"/>
<circle cx="724" cy="887" r="1.26" fill="#ebf2ff" opacity="0.45"/>
<circle cx="911" cy="1058" r="1.17" fill="#b4d2ff" opacity="0.92"/>
<circle cx="137" cy="264" r="1.41" fill="#ebf2ff" opacity="0.97"/>
<circle cx="1196" cy="1206" r="0.63" fill="#ffdcf0" opacity="0.83"/>
<circle cx="654" cy="214" r="0.93" fill="#b4d2ff" opacity="0.72"/>
<circle cx="583" cy="742" r="1.24" fill="#b4d2ff" opacity="0.60"/>
<circle cx="53" cy="103" r="0.5" fill="#b4d2ff" opacity="0.52"/>
<circle cx="982" cy="768" r="1.13" fill="#ffdcf0" opacity="0.73"/>
<circle cx="231" cy="1163" r="0.5" fill="#ebf2ff" opacity="0.82"/>
<circle cx="953" cy="1216" r="1.11" fill="#ebf2ff" opacity="0.78"/>
<circle cx="482" cy="197" r="1.33" fill="#ebf2ff" opacity="0.42"/>
<circle cx="957" cy="223" r="0.97" fill="#b4d2ff" opacity="0.62"/>
<circle cx="814" cy="235" r="0.46" fill="#b4d2ff" opacity="0.66"/>
<circle cx="407" cy="508" r="1.41" fill="#b4d2ff" opacity="0.60"/>
<circle cx="381" cy="1402" r="0.94" fill="#ebf2ff" opacity="0.43"/>
<circle cx="54" cy="269" r="0.7" fill="#b4d2ff" opacity="0.87"/>
<circle cx="97" cy="1060" r="1.43" fill="#b4d2ff" opacity="0.89"/>
<circle cx="32" cy="965" r="0.7" fill="#b4d2ff" opacity="0.73"/>
<circle cx="972" cy="370" r="1.02" fill="#ffdcf0" opacity="0.88"/>
<circle cx="926" cy="292" r="0.65" fill="#b4d2ff" opacity="0.53"/>
<circle cx="169" cy="305" r="0.49" fill="#b4d2ff" opacity="0.96"/>
<circle cx="156" cy="397" r="0.73" fill="#b4d2ff" opacity="0.94"/>
<circle cx="728" cy="1002" r="0.89" fill="#b4d2ff" opacity="0.71"/>
<circle cx="746" cy="549" r="1.28" fill="#ebf2ff" opacity="0.78"/>
<circle cx="991" cy="899" r="1.02" fill="#b4d2ff" opacity="0.67"/>
<circle cx="515" cy="228" r="1.04" fill="#ebf2ff" opacity="0.52"/>
<circle cx="1227" cy="1670" r="1.09" fill="#b4d2ff" opacity="0.85"/>
<circle cx="266" cy="1483" r="0.83" fill="#ffdcf0" opacity="0.76"/>
<circle cx="238" cy="707" r="0.51" fill="#b4d2ff" opacity="0.42"/>
<circle cx="958" cy="665" r="0.93" fill="#ebf2ff" opacity="0.63"/>
<circle cx="307" cy="595" r="0.64" fill="#b4d2ff" opacity="0.96"/>
<circle cx="823" cy="958" r="0.7" fill="#ebf2ff" opacity="0.68"/>
<circle cx="1134" cy="879" r="0.98" fill="#ffdcf0" opacity="0.48"/>
<circle cx="637" cy="993" r="0.6" fill="#ebf2ff" opacity="0.66"/>
<circle cx="845" cy="1434" r="0.41" fill="#ffdcf0" opacity="0.92"/>
<circle cx="1229" cy="1351" r="1.54" fill="#ebf2ff" opacity="0.55"/>
<circle cx="780" cy="401" r="0.95" fill="#b4d2ff" opacity="0.97"/>
<circle cx="485" cy="908" r="1.25" fill="#ffdcf0" opacity="0.78"/>
<circle cx="641" cy="441" r="0.42" fill="#ebf2ff" opacity="0.69"/>
<circle cx="291" cy="89" r="1.1" fill="#ebf2ff" opacity="0.48"/>
<circle cx="870" cy="1499" r="0.73" fill="#ebf2ff" opacity="0.52"/>
<circle cx="675" cy="185" r="0.99" fill="#ebf2ff" opacity="0.58"/>
<circle cx="721" cy="725" r="0.87" fill="#ebf2ff" opacity="0.71"/>
<circle cx="270" cy="32" r="1.05" fill="#ebf2ff" opacity="0.78"/>
<circle cx="165" cy="1420" r="1.52" fill="#ebf2ff" opacity="0.62"/>
<circle cx="85" cy="14" r="0.92" fill="#b4d2ff" opacity="0.55"/>
<circle cx="55" cy="1148" r="0.55" fill="#ebf2ff" opacity="0.71"/>
<circle cx="794" cy="605" r="0.56" fill="#ebf2ff" opacity="0.98"/>
<circle cx="303" cy="817" r="1.54" fill="#ffdcf0" opacity="0.83"/>
<circle cx="641" cy="1692" r="0.6" fill="#ebf2ff" opacity="0.46"/>
<circle cx="1133" cy="123" r="0.88" fill="#ffdcf0" opacity="0.56"/>
<circle cx="119" cy="970" r="0.68" fill="#b4d2ff" opacity="0.48"/>
<circle cx="813" cy="194" r="0.93" fill="#b4d2ff" opacity="0.68"/>
<circle cx="762" cy="374" r="1.35" fill="#ffdcf0" opacity="0.62"/>
<circle cx="74" cy="867" r="0.51" fill="#ffdcf0" opacity="0.64"/>
<circle cx="146" cy="179" r="1.34" fill="#b4d2ff" opacity="0.69"/>
<circle cx="770" cy="469" r="1.23" fill="#ebf2ff" opacity="0.99"/>
<circle cx="744" cy="721" r="1.2" fill="#ebf2ff" opacity="0.92"/>
<circle cx="773" cy="318" r="1.49" fill="#ffdcf0" opacity="0.56"/>
<circle cx="672" cy="1558" r="0.68" fill="#ffdcf0" opacity="0.78"/>
<circle cx="1239" cy="704" r="0.56" fill="#ffdcf0" opacity="0.89"/>
<circle cx="967" cy="909" r="0.98" fill="#b4d2ff" opacity="0.95"/>
<circle cx="1139" cy="1046" r="0.71" fill="#ebf2ff" opacity="0.64"/>
<circle cx="78" cy="689" r="0.7" fill="#b4d2ff" opacity="0.91"/>
<circle cx="928" cy="219" r="1.22" fill="#ebf2ff" opacity="0.78"/>
<circle cx="349" cy="723" r="1.28" fill="#ebf2ff" opacity="0.90"/>
<circle cx="15" cy="910" r="1.23" fill="#b4d2ff" opacity="1.00"/>
<circle cx="382" cy="182" r="0.58" fill="#ffdcf0" opacity="0.43"/>
<circle cx="1129" cy="417" r="0.65" fill="#ebf2ff" opacity="0.98"/>
<circle cx="476" cy="128" r="1.15" fill="#b4d2ff" opacity="0.86"/>
<circle cx="74" cy="961" r="1.18" fill="#b4d2ff" opacity="0.87"/>
<g filter="url(#glow)"><line x1="620" y1="606" x2="922" y2="679" stroke="#7884a5" stroke-width="2" stroke-linecap="round"/></g>
<g filter="url(#glow)"><line x1="922" y1="679" x2="1082" y2="863" stroke="#7884a5" stroke-width="2" stroke-linecap="round"/></g>
<g filter="url(#glow)"><line x1="1082" y1="863" x2="1027" y2="1072" stroke="#7884a5" stroke-width="2" stroke-linecap="round"/></g>
<g filter="url(#glow)"><line x1="1027" y1="1072" x2="780" y2="1208" stroke="#7884a5" stroke-width="2" stroke-linecap="round"/></g>
<g filter="url(#glow)"><line x1="780" y1="1208" x2="459" y2="1208" stroke="#7884a5" stroke-width="2" stroke-linecap="round"/></g>
<g filter="url(#glow)"><line x1="459" y1="1208" x2="212" y2="1072" stroke="#7884a5" stroke-width="2" stroke-linecap="round"/></g>
<g filter="url(#glow)"><line x1="212" y1="1072" x2="157" y2="863" stroke="#7884a5" stroke-width="2" stroke-linecap="round"/></g>
<g filter="url(#glow)"><line x1="157" y1="863" x2="317" y2="679" stroke="#7884a5" stroke-width="2" stroke-linecap="round"/></g>
<g filter="url(#glow)"><line x1="317" y1="679" x2="620" y2="606" stroke="#7884a5" stroke-width="2" stroke-linecap="round"/></g>
<g filter="url(#glow)"><circle cx="620" cy="606" r="16" fill="#3cdcff"/></g>
<text x="620" y="536" font-family="Consolas, monospace" font-size="24" font-weight="bold" fill="#ebf2ff" text-anchor="middle" filter="url(#glow)">WORM#00</text>
<g filter="url(#glow)"><circle cx="922" cy="679" r="16" fill="#46ff78"/></g>
<text x="922" y="609" font-family="Consolas, monospace" font-size="24" font-weight="bold" fill="#ebf2ff" text-anchor="middle" filter="url(#glow)">WORM#01</text>
<g filter="url(#glow)"><circle cx="1082" cy="863" r="16" fill="#ffd25a"/></g>
<text x="1082" y="793" font-family="Consolas, monospace" font-size="24" font-weight="bold" fill="#ebf2ff" text-anchor="middle" filter="url(#glow)">WORM#02</text>
<g filter="url(#glow)"><circle cx="1027" cy="1072" r="16" fill="#a56eff"/></g>
<text x="1027" y="1002" font-family="Consolas, monospace" font-size="24" font-weight="bold" fill="#ebf2ff" text-anchor="middle" filter="url(#glow)">WORM#03</text>
<g filter="url(#glow)"><circle cx="780" cy="1208" r="16" fill="#ff38d6"/></g>
<text x="780" y="1138" font-family="Consolas, monospace" font-size="24" font-weight="bold" fill="#ebf2ff" text-anchor="middle" filter="url(#glow)">WORM#04</text>
<g filter="url(#glow)"><circle cx="459" cy="1208" r="16" fill="#3cdcff"/></g>
<text x="459" y="1138" font-family="Consolas, monospace" font-size="24" font-weight="bold" fill="#ebf2ff" text-anchor="middle" filter="url(#glow)">WORM#05</text>
<g filter="url(#glow)"><circle cx="212" cy="1072" r="16" fill="#46ff78"/></g>
<text x="212" y="1002" font-family="Consolas, monospace" font-size="24" font-weight="bold" fill="#ebf2ff" text-anchor="middle" filter="url(#glow)">WORM#06</text>
<g filter="url(#glow)"><circle cx="157" cy="863" r="16" fill="#ffd25a"/></g>
<text x="157" y="793" font-family="Consolas, monospace" font-size="24" font-weight="bold" fill="#ebf2ff" text-anchor="middle" filter="url(#glow)">WORM#07</text>
<g filter="url(#glow)"><circle cx="317" cy="679" r="16" fill="#ff38d6"/></g>
<text x="317" y="609" font-family="Consolas, monospace" font-size="24" font-weight="bold" fill="#ebf2ff" text-anchor="middle" filter="url(#glow)">WORM#08</text>
<text x="620" y="917" font-family="Consolas, monospace" font-size="30" font-weight="bold" fill="#ebf2ff" text-anchor="middle">CHAIN</text>
<text x="620" y="1634" font-family="Consolas, monospace" font-size="36" font-weight="bold" fill="#46ff78" text-anchor="middle" filter="url(#glow)">THE WORM CHAIN · 9 CELESTIAL NODES</text>
</svg>