<?xml version="1.0" encoding="UTF-8"?>
<svg xmlns="http://www.w3.org/2000/svg" width="1240" height="1754" viewBox="0 0 1240 1754">
<defs><filter id="glow" x="-60%%" y="-60%%" width="220%%" height="220%%"><feGaussianBlur stdDeviation="8" result="b"/><feMerge><feMergeNode in="b"/><feMergeNode in="SourceGraphic"/></feMerge></filter>
<radialGradient id="vig" cx="50%%" cy="42%%" r="75%%"><stop offset="0%%" stop-color="#0a0420"/><stop offset="100%%" stop-color="#05010c"/></radialGradient></defs>
<rect width="1240" height="1754" fill="url(#vig)"/>
<circle cx="956" cy="1722" r="1.92" fill="#ffdcf0" opacity="0.96"/>
<circle cx="389" cy="1332" r="1.44" fill="#b4d2ff" opacity="0.43"/>
<circle cx="186" cy="344" r="1.44" fill="#b4d2ff" opacity="0.52"/>
<circle cx="587" cy="1265" r="1.43" fill="#b4d2ff" opacity="0.95"/>
<circle cx="146" cy="1435" r="1.56" fill="#ebf2ff" opacity="0.73"/>
<circle cx="1058" cy="1195" r="1.26" fill="#b4d2ff" opacity="0.89"/>
<circle cx="1109" cy="720" r="0.77" fill="#b4d2ff" opacity="0.68"/>
<circle cx="496" cy="64" r="0.42" fill="#b4d2ff" opacity="0.73"/>
<circle cx="903" cy="1382" r="1.4" fill="#ebf2ff" opacity="0.54"/>
<circle cx="1145" cy="408" r="1.21" fill="#b4d2ff" opacity="0.64"/>
<circle cx="345" cy="958" r="0.55" fill="#b4d2ff" opacity="0.44"/>
<circle cx="266" cy="1160" r="1.78" fill="#ebf2ff" opacity="0.89"/>
<circle cx="971" cy="1420" r="0.64" fill="#b4d2ff" opacity="0.51"/>
<circle cx="1126" cy="236" r="0.62" fill="#b4d2ff" opacity="0.45"/>
<circle cx="1019" cy="1288" r="1.07" fill="#ffdcf0" opacity="0.60"/>
<circle cx="729" cy="170" r="1.59" fill="#ffdcf0" opacity="0.41"/>
<circle cx="516" cy="487" r="0.58" fill="#ebf2ff" opacity="0.97"/>
<circle cx="1217" cy="1383" r="1.32" fill="#ffdcf0" opacity="0.51"/>
<circle cx="1088" cy="21" r="1.96" fill="#b4d2ff" opacity="0.95"/>
<circle cx="359" cy="1463" r="1.13" fill="#ebf2ff" opacity="0.55"/>
<circle cx="965" cy="1537" r="1.91" fill="#ffdcf0" opacity="0.97"/>
<circle cx="979" cy="231" r="0.51" fill="#ebf2ff" opacity="0.77"/>
<circle cx="637" cy="302" r="1.05" fill="#b4d2ff" opacity="0.41"/>
<circle cx="605" cy="308" r="1.01" fill="#ffdcf0" opacity="0.40"/>
<circle cx="1202" cy="248" r="0.55" fill="#b4d2ff" opacity="0.67"/>
<circle cx="139" cy="1732" r="1.02" fill="#b4d2ff" opacity="0.66"/>
<circle cx="909" cy="1490" r="1.9" fill="#b4d2ff" opacity="0.55"/>
<circle cx="840" cy="961" r="0.87" fill="#b4d2ff" opacity="0.89"/>
<circle cx="208" cy="1254" r="1.28" fill="#ebf2ff" opacity="0.53"/>
<circle cx="603" cy="1459" r="1.97" fill="#b4d2ff" opacity="0.53"/>
<circle cx="666" cy="339" r="1.68" fill="#ebf2ff" opacity="0.63"/>
<circle cx="1231" cy="686" r="1.43" fill="#b4d2ff" opacity="0.52"/>
<circle cx="1124" cy="620" r="1.86" fill="#ffdcf0" opacity="0.98"/>
<circle cx="539" cy="711" r="1.79" fill="#b4d2ff" opacity="0.55"/>
<circle cx="1041" cy="618" r="0.46" fill="#ffdcf0" opacity="0.89"/>
<circle cx="615" cy="347" r="1.76" fill="#ffdcf0" opacity="0.75"/>
<circle cx="911" cy="768" r="1.42" fill="#ffdcf0" opacity="0.44"/>
<circle cx="628" cy="1511" r="0.46" fill="#ffdcf0" opacity="0.71"/>
<circle cx="1150" cy="610" r="1.74" fill="#ebf2ff" opacity="0.99"/>
<circle cx="1095" cy="1698" r="1.92" fill="#ffdcf0" opacity="0.57"/>
<circle cx="1036" cy="717" r="1.73" fill="#b4d2ff" opacity="0.85"/>
<circle cx="1076" cy="451" r="0.42" fill="#ffdcf0" opacity="0.66"/>
<circle cx="745" cy="1749" r="1.91" fill="#ebf2ff" opacity="0.74"/>
<circle cx="773" cy="729" r="1.78" fill="#ebf2ff" opacity="0.46"/>
<circle cx="440" cy="358" r="1.18" fill="#b4d2ff" opacity="0.68"/>
<circle cx="322" cy="891" r="1.22" fill="#b4d2ff" opacity="0.42"/>
<circle cx="173" cy="207" r="0.59" fill="#b4d2ff" opacity="0.47"/>
<circle cx="1231" cy="710" r="1.42" fill="#ffdcf0" opacity="0.46"/>
<circle cx="481" cy="657" r="0.9" fill="#ebf2ff" opacity="0.46"/>
<circle cx="135" cy="1560" r="0.95" fill="#ebf2ff" opacity="0.68"/>
<circle cx="847" cy="203" r="1.43" fill="#ebf2ff" opacity="0.92"/>
<circle cx="1135" cy="994" r="0.95" fill="#ebf2ff" opacity="0.47"/>
<circle cx="709" cy="484" r="0.64" fill="#b4d2ff" opacity="0.97"/>
<circle cx="203" cy="1127" r="1.67" fill="#b4d2ff" opacity="0.85"/>
<circle cx="268" cy="186" r="0.43" fill="#b4d2ff" opacity="0.65"/>
<circle cx="128" cy="904" r="1.2" fill="#b4d2ff" opacity="0.69"/>
<circle cx="201" cy="96" r="1.05" fill="#b4d2ff" opacity="0.78"/>
<circle cx="523" cy="1459" r="1.27" fill="#ebf2ff" opacity="0.65"/>
<circle cx="716" cy="345" r="0.42" fill="#ebf2ff" opacity="0.76"/>
<circle cx="629" cy="528" r="1.64" fill="#b4d2ff" opacity="0.87"/>
<circle cx="463" cy="747" r="1.89" fill="#ebf2ff" opacity="0.65"/>
<circle cx="169" cy="1183" r="1.63" fill="#b4d2ff" opacity="0.59"/>
<circle cx="1184" cy="636" r="0.77" fill="#ffdcf0" opacity="0.71"/>
<circle cx="1080" cy="858" r="0.8" fill="#ffdcf0" opacity="0.77"/>
<circle cx="1079" cy="942" r="0.86" fill="#ffdcf0" opacity="0.91"/>
<circle cx="533" cy="425" r="1.53" fill="#ffdcf0" opacity="0.75"/>
<circle cx="333" cy="732" r="1.7" fill="#b4d2ff" opacity="0.97"/>
<circle cx="637" cy="225" r="1.8" fill="#ebf2ff" opacity="0.40"/>
<circle cx="405" cy="1230" r="1.35" fill="#ffdcf0" opacity="0.59"/>
<circle cx="251" cy="1353" r="0.94" fill="#ffdcf0" opacity="0.65"/>
<circle cx="945" cy="1246" r="1.0" fill="#ebf2ff" opacity="0.99"/>
<circle cx="881" cy="1547" r="1.49" fill="#ffdcf0" opacity="0.59"/>
<circle cx="772" cy="733" r="0.42" fill="#b4d2ff" opacity="0.63"/>
<circle cx="718" cy="1622" r="0.8" fill="#b4d2ff" opacity="0.41"/>
<circle cx="846" cy="954" r="0.47" fill="#ebf2ff" opacity="0.92"/>
<circle cx="602" cy="1106" r="1.96" fill="#ebf2ff" opacity="0.47"/>
<circle cx="677" cy="884" r="0.82" fill="#b4d2ff" opacity="0.95"/>
<circle cx="527" cy="4" r="0.73" fill="#ebf2ff" opacity="0.45"/>
<circle cx="361" cy="101" r="1.53" fill="#ffdcf0" opacity="0.72"/>
<circle cx="211" cy="1384" r="1.38" fill="#ffdcf0" opacity="0.78"/>
<circle cx="111" cy="592" r="0.6" fill="#b4d2ff" opacity="0.54"/>
<circle cx="136" cy="214" r="1.67" fill="#ebf2ff" opacity="1.00"/>
<circle cx="794" cy="75" r="0.62" fill="#ffdcf0" opacity="0.84"/>
<circle cx="587" cy="837" r="1.88" fill="#ffdcf0" opacity="0.81"/>
<circle cx="903" cy="389" r="1.89" fill="#b4d2ff" opacity="0.59"/>
<circle cx="547" cy="1309" r="1.89" fill="#ffdcf0" opacity="0.50"/>
<circle cx="813" cy="1466" r="0.48" fill="#b4d2ff" opacity="0.98"/>
<circle cx="844" cy="1682" r="1.16" fill="#ffdcf0" opacity="0.78"/>
<circle cx="1" cy="588" r="1.65" fill="#ebf2ff" opacity="0.88"/>
<circle cx="880" cy="392" r="0.83" fill="#ffdcf0" opacity="0.68"/>
<circle cx="308" cy="420" r="0.91" fill="#ffdcf0" opacity="0.58"/>
<circle cx="211" cy="395" r="1.15" fill="#ebf2ff" opacity="0.62"/>
<circle cx="152" cy="20" r="0.99" fill="#ffdcf0" opacity="0.46"/>
<circle cx="1131" cy="448" r="0.71" fill="#b4d2ff" opacity="0.46"/>
<circle cx="1103" cy="1151" r="0.58" fill="#ffdcf0" opacity="0.44"/>
<circle cx="461" cy="950" r="1.29" fill="#ebf2ff" opacity="0.50"/>
<circle cx="397" cy="1131" r="0.8" fill="#ebf2ff" opacity="0.63"/>
<circle cx="1204" cy="1324" r="1.15" fill="#ebf2ff" opacity="0.51"/>
<circle cx="364" cy="736" r="1.16" fill="#ffdcf0" opacity="0.76"/>
<circle cx="587" cy="1634" r="1.97" fill="#ffdcf0" opacity="0.43"/>
<circle cx="1137" cy="706" r="1.76" fill="#ebf2ff" opacity="0.83"/>
<circle cx="970" cy="1300" r="1.87" fill="#b4d2ff" opacity="0.49"/>
<circle cx="930" cy="804" r="1.82" fill="#ffdcf0" opacity="0.46"/>
<circle cx="628" cy="253" r="0.81" fill="#ffdcf0" opacity="0.89"/>
<circle cx="147" cy="980" r="0.91" fill="#b4d2ff" opacity="0.48"/>
<circle cx="96" cy="139" r="0.87" fill="#b4d2ff" opacity="0.45"/>
<circle cx="412" cy="1339" r="0.72" fill="#ffdcf0" opacity="0.41"/>
<circle cx="645" cy="413" r="0.44" fill="#b4d2ff" opacity="0.46"/>
<circle cx="1021" cy="1066" r="1.74" fill="#ffdcf0" opacity="0.60"/>
<circle cx="448" cy="87" r="0.97" fill="#ffdcf0" opacity="0.75"/>
<circle cx="1008" cy="1403" r="1.18" fill="#b4d2ff" opacity="0.44"/>
<circle cx="700" cy="743" r="0.72" fill="#b4d2ff" opacity="0.73"/>
<circle cx="1074" cy="705" r="1.68" fill="#ffdcf0" opacity="0.92"/>
<circle cx="165" cy="1303" r="1.44" fill="#ebf2ff" opacity="0.66"/>
<circle cx="107" cy="1316" r="1.36" fill="#b4d2ff" opacity="0.49"/>
<circle cx="968" cy="826" r="0.59" fill="#ffdcf0" opacity="0.92"/>
<circle cx="249" cy="541" r="0.59" fill="#b4d2ff" opacity="0.54"/>
<circle cx="425" cy="569" r="1.98" fill="#b4d2ff" opacity="0.97"/>
<circle cx="18" cy="248" r="0.46" fill="#ffdcf0" opacity="0.68"/>
<circle cx="353" cy="806" r="1.84" fill="#ffdcf0" opacity="0.48"/>
<circle cx="407" cy="1436" r="1.36" fill="#ebf2ff" opacity="0.58"/>
<circle cx="882" cy="586" r="1.08" fill="#b4d2ff" opacity="0.73"/>
<circle cx="411" cy="183" r="1.03" fill="#b4d2ff" opacity="0.92"/>
<circle cx="1113" cy="1512" r="1.35" fill="#ffdcf0" opacity="0.97"/>
<circle cx="536" cy="1581" r="0.91" fill="#ffdcf0" opacity="0.54"/>
<circle cx="677" cy="1126" r="0.54" fill="#ebf2ff" opacity="0.84"/>
<circle cx="382" cy="162" r="1.14" fill="#ebf2ff" opacity="0.83"/>
<circle cx="461" cy="632" r="1.4" fill="#b4d2ff" opacity="0.91"/>
<circle cx="87" cy="561" r="1.77" fill="#ffdcf0" opacity="0.93"/>
<circle cx="594" cy="1421" r="0.55" fill="#ebf2ff" opacity="0.57"/>
<circle cx="951" cy="688" r="1.51" fill="#ebf2ff" opacity="0.86"/>
<circle cx="1075" cy="1046" r="1.09" fill="#b4d2ff" opacity="0.65"/>
<circle cx="245" cy="1431" r="1.5" fill="#ebf2ff" opacity="0.82"/>
<circle cx="1068" cy="265" r="0.8" fill="#b4d2ff" opacity="0.89"/>
<circle cx="650" cy="462" r="0.82" fill="#ffdcf0" opacity="0.56"/>
<circle cx="580" cy="348" r="1.31" fill="#b4d2ff" opacity="0.87"/>
<circle cx="570" cy="941" r="1.97" fill="#ffdcf0" opacity="1.00"/>
<circle cx="152" cy="1570" r="1.28" fill="#b4d2ff" opacity="0.88"/>
<circle cx="814" cy="16" r="0.69" fill="#ebf2ff" opacity="0.77"/>
<circle cx="827" cy="1546" r="1.29" fill="#ebf2ff" opacity="0.84"/>
<circle cx="0" cy="142" r="0.49" fill="#ebf2ff" opacity="0.99"/>
<circle cx="87" cy="1282" r="0.9" fill="#ebf2ff" opacity="0.41"/>
<circle cx="1002" cy="105" r="1.63" fill="#ffdcf0" opacity="0.97"/>
<circle cx="908" cy="1572" r="0.48" fill="#ffdcf0" opacity="0.49"/>
<circle cx="411" cy="448" r="0.46" fill="#b4d2ff" opacity="0.42"/>
<circle cx="74" cy="638" r="1.24" fill="#ffdcf0" opacity="0.69"/>
<circle cx="1083" cy="1422" r="1.63" fill="#b4d2ff" opacity="0.98"/>
<circle cx="818" cy="1748" r="0.52" fill="#ebf2ff" opacity="0.58"/>
<circle cx="488" cy="728" r="0.53" fill="#ebf2ff" opacity="0.51"/>
<circle cx="502" cy="1047" r="0.78" fill="#ebf2ff" opacity="0.43"/>
<circle cx="625" cy="11" r="1.41" fill="#ebf2ff" opacity="0.97"/>
<circle cx="633" cy="341" r="1.02" fill="#b4d2ff" opacity="0.98"/>
<circle cx="882" cy="1008" r="0.56" fill="#b4d2ff" opacity="0.51"/>
<circle cx="1211" cy="501" r="1.86" fill="#ebf2ff" opacity="0.93"/>
<circle cx="283" cy="857" r="1.1" fill="#ffdcf0" opacity="0.82"/>
<circle cx="306" cy="1589" r="1.36" fill="#b4d2ff" opacity="0.68"/>
<circle cx="694" cy="1611" r="1.2" fill="#ffdcf0" opacity="0.50"/>
<circle cx="347" cy="417" r="1.35" fill="#ffdcf0" opacity="0.44"/>
<circle cx="389" cy="402" r="1.19" fill="#ebf2ff" opacity="0.99"/>
<circle cx="206" cy="1048" r="1.07" fill="#b4d2ff" opacity="0.73"/>
<circle cx="245" cy="277" r="1.7" fill="#ffdcf0" opacity="0.76"/>
<circle cx="598" cy="1001" r="1.88" fill="#ffdcf0" opacity="0.64"/>
<circle cx="697" cy="643" r="0.82" fill="#b4d2ff" opacity="0.43"/>
<circle cx="809" cy="470" r="1.71" fill="#ebf2ff" opacity="0.64"/>
<circle cx="849" cy="1610" r="1.74" fill="#ebf2ff" opacity="0.99"/>
<circle cx="648" cy="1191" r="1.14" fill="#b4d2ff" opacity="0.73"/>
<circle cx="186" cy="282" r="0.83" fill="#b4d2ff" opacity="0.94"/>
<circle cx="329" cy="770" r="0.82" fill="#ffdcf0" opacity="1.00"/>
<circle cx="810" cy="1654" r="0.64" fill="#ebf2ff" opacity="0.74"/>
<circle cx="356" cy="30" r="1.24" fill="#ffdcf0" opacity="0.96"/>
<circle cx="635" cy="316" r="1.41" fill="#ebf2ff" opacity="0.85"/>
<circle cx="278" cy="826" r="0.66" fill="#ebf2ff" opacity="0.97"/>
<circle cx="51" cy="1606" r="1.81" fill="#ffdcf0" opacity="0.78"/>
<circle cx="747" cy="90" r="1.01" fill="#ffdcf0" opacity="0.47"/>
<circle cx="1066" cy="1204" r="1.47" fill="#b4d2ff" opacity="0.41"/>
<circle cx="250" cy="640" r="0.59" fill="#ffdcf0" opacity="0.43"/>
<circle cx="215" cy="477" r="0.77" fill="#ffdcf0" opacity="0.49"/>
<circle cx="364" cy="786" r="1.35" fill="#ffdcf0" opacity="0.66"/>
<circle cx="398" cy="1321" r="1.15" fill="#ebf2ff" opacity="0.95"/>
<circle cx="810" cy="1423" r="0.45" fill="#ffdcf0" opacity="0.48"/>
<circle cx="1204" cy="824" r="1.41" fill="#ebf2ff" opacity="0.46"/>
<circle cx="1082" cy="707" r="1.04" fill="#b4d2ff" opacity="0.43"/>
<circle cx="340" cy="262" r="0.74" fill="#b4d2ff" opacity="1.00"/>
<circle cx="1187" cy="804" r="1.36" fill="#b4d2ff" opacity="0.52"/>
<circle cx="453" cy="259" r="1.19" fill="#b4d2ff" opacity="0.92"/>
<circle cx="656" cy="69" r="0.51" fill="#ffdcf0" opacity="0.62"/>
<circle cx="107" cy="1496" r="1.53" fill="#ebf2ff" opacity="0.66"/>
<circle cx="992" cy="145" r="1.56" fill="#b4d2ff" opacity="0.44"/>
<circle cx="253" cy="346" r="1.62" fill="#b4d2ff" opacity="0.54"/>
<circle cx="749" cy="148" r="1.07" fill="#ffdcf0" opacity="0.62"/>
<circle cx="1217" cy="1139" r="1.45" fill="#ffdcf0" opacity="0.41"/>
<circle cx="215" cy="665" r="0.81" fill="#ebf2ff" opacity="0.63"/>
<circle cx="85" cy="398" r="1.87" fill="#ebf2ff" opacity="0.49"/>
<circle cx="718" cy="3" r="0.65" fill="#b4d2ff" opacity="0.91"/>
<circle cx="3" cy="753" r="1.96" fill="#ebf2ff" opacity="0.45"/>
<circle cx="1089" cy="280" r="1.36" fill="#b4d2ff" opacity="0.89"/>
<circle cx="1044" cy="432" r="0.86" fill="#ffdcf0" opacity="0.41"/>
<circle cx="1082" cy="272" r="1.7" fill="#ffdcf0" opacity="0.64"/>
<circle cx="134" cy="1691" r="0.76" fill="#ebf2ff" opacity="0.84"/>
<circle cx="267" cy="378" r="0.68" fill="#ebf2ff" opacity="0.82"/>
<circle cx="1069" cy="1361" r="1.51" fill="#ebf2ff" opacity="0.69"/>
<circle cx="1090" cy="950" r="1.18" fill="#ebf2ff" opacity="0.57"/>
<circle cx="24" cy="736" r="0.89" fill="#ebf2ff" opacity="0.57"/>
<circle cx="793" cy="1064" r="1.5" fill="#b4d2ff" opacity="0.81"/>
<circle cx="524" cy="287" r="1.61" fill="#b4d2ff" opacity="0.56"/>
<circle cx="144" cy="1300" r="1.53" fill="#ffdcf0" opacity="0.89"/>
<circle cx="1003" cy="635" r="0.81" fill="#ffdcf0" opacity="0.67"/>
<circle cx="821" cy="80" r="0.84" fill="#ffdcf0" opacity="0.68"/>
<circle cx="458" cy="1255" r="0.76" fill="#ffdcf0" opacity="0.43"/>
<circle cx="740" cy="697" r="0.43" fill="#ffdcf0" opacity="0.64"/>
<circle cx="928" cy="22" r="1.31" fill="#ebf2ff" opacity="0.60"/>
<circle cx="542" cy="1425" r="0.75" fill="#ebf2ff" opacity="0.71"/>
<circle cx="1232" cy="341" r="1.02" fill="#b4d2ff" opacity="0.68"/>
<circle cx="20" cy="1277" r="1.61" fill="#ffdcf0" opacity="0.64"/>
<circle cx="521" cy="586" r="1.04" fill="#ffdcf0" opacity="0.58"/>
<circle cx="91" cy="499" r="1.14" fill="#ebf2ff" opacity="0.59"/>
<circle cx="1104" cy="500" r="1.71" fill="#ebf2ff" opacity="0.90"/>
<circle cx="796" cy="1388" r="1.87" fill="#b4d2ff" opacity="0.60"/>
<circle cx="1031" cy="1213" r="1.91" fill="#b4d2ff" opacity="0.45"/>
<circle cx="618" cy="1118" r="0.49" fill="#ffdcf0" opacity="0.71"/>
<g filter="url(#glow)"><circle cx="620" cy="526" r="26" fill="#3cdcff"/></g>
<circle cx="620" cy="526" r="120" fill="none" stroke="#3cdcff" stroke-width="2" opacity="0.8"/>
<circle cx="620" cy="526" r="200" fill="none" stroke="#a56eff" stroke-width="1" opacity="0.8"/>
<g filter="url(#glow)"><line x1="943" y1="736" x2="51" y2="496" stroke="#7884a5" stroke-width="1" stroke-linecap="round"/></g>
<g filter="url(#glow)"><line x1="51" y1="496" x2="892" y2="669" stroke="#7884a5" stroke-width="1" stroke-linecap="round"/></g>
<g filter="url(#glow)"><line x1="892" y1="669" x2="249" y2="334" stroke="#7884a5" stroke-width="1" stroke-linecap="round"/></g>
<g filter="url(#glow)"><line x1="249" y1="334" x2="715" y2="212" stroke="#7884a5" stroke-width="1" stroke-linecap="round"/></g>
<g filter="url(#glow)"><line x1="715" y1="212" x2="554" y2="153" stroke="#7884a5" stroke-width="1" stroke-linecap="round"/></g>
<g filter="url(#glow)"><line x1="554" y1="153" x2="623" y2="196" stroke="#7884a5" stroke-width="1" stroke-linecap="round"/></g>
<g filter="url(#glow)"><line x1="1045" y1="774" x2="94" y2="646" stroke="#7884a5" stroke-width="1" stroke-linecap="round"/></g>
<g filter="url(#glow)"><line x1="420" y1="201" x2="706" y2="763" stroke="#7884a5" stroke-width="1" stroke-linecap="round"/></g>
<g filter="url(#glow)"><line x1="706" y1="763" x2="1209" y2="473" stroke="#7884a5" stroke-width="1" stroke-linecap="round"/></g>
<g filter="url(#glow)"><line x1="1209" y1="473" x2="830" y2="117" stroke="#7884a5" stroke-width="1" stroke-linecap="round"/></g>
<g filter="url(#glow)"><line x1="372" y1="797" x2="508" y2="812" stroke="#7884a5" stroke-width="1" stroke-linecap="round"/></g>
<g filter="url(#glow)"><line x1="508" y1="812" x2="986" y2="274" stroke="#7884a5" stroke-width="1" stroke-linecap="round"/></g>
<g filter="url(#glow)"><line x1="524" y1="260" x2="263" y2="658" stroke="#7884a5" stroke-width="1" stroke-linecap="round"/></g>
<g filter="url(#glow)"><line x1="263" y1="658" x2="242" y2="368" stroke="#7884a5" stroke-width="1" stroke-linecap="round"/></g>
<g filter="url(#glow)"><line x1="949" y1="732" x2="620" y2="192" stroke="#7884a5" stroke-width="1" stroke-linecap="round"/></g>
<g filter="url(#glow)"><line x1="30" y1="549" x2="597" y2="813" stroke="#7884a5" stroke-width="1" stroke-linecap="round"/></g>
<g filter="url(#glow)"><circle cx="943" cy="736" r="4" fill="#a56eff"/></g>
<g filter="url(#glow)"><circle cx="51" cy="496" r="4" fill="#a56eff"/></g>
<g filter="url(#glow)"><circle cx="892" cy="669" r="4" fill="#a56eff"/></g>
<g filter="url(#glow)"><circle cx="249" cy="334" r="4" fill="#3cdcff"/></g>
<g filter="url(#glow)"><circle cx="715" cy="212" r="4" fill="#a56eff"/></g>
<g filter="url(#glow)"><circle cx="554" cy="153" r="4" fill="#a56eff"/></g>
<g filter="url(#glow)"><circle cx="623" cy="196" r="4" fill="#3cdcff"/></g>
<g filter="url(#glow)"><circle cx="650" cy="862" r="4" fill="#3cdcff"/></g>
<g filter="url(#glow)"><circle cx="1045" cy="774" r="4" fill="#3cdcff"/></g>
<g filter="url(#glow)"><circle cx="94" cy="646" r="4" fill="#ff38d6"/></g>
<g filter="url(#glow)"><circle cx="420" cy="201" r="4" fill="#ff38d6"/></g>
<g filter="url(#glow)"><circle cx="706" cy="763" r="4" fill="#a56eff"/></g>
<g filter="url(#glow)"><circle cx="1209" cy="473" r="4" fill="#ff38d6"/></g>
<g filter="url(#glow)"><circle cx="830" cy="117" r="4" fill="#a56eff"/></g>
<g filter="url(#glow)"><circle cx="333" cy="508" r="4" fill="#a56eff"/></g>
<g filter="url(#glow)"><circle cx="372" cy="797" r="4" fill="#3cdcff"/></g>
<g filter="url(#glow)"><circle cx="508" cy="812" r="4" fill="#a56eff"/></g>
<g filter="url(#glow)"><circle cx="986" cy="274" r="4" fill="#ff38d6"/></g>
<g filter="url(#glow)"><circle cx="382" cy="437" r="4" fill="#a56eff"/></g>
<g filter="url(#glow)"><circle cx="524" cy="260" r="4" fill="#a56eff"/></g>
<g filter="url(#glow)"><circle cx="263" cy="658" r="4" fill="#ff38d6"/></g>
<g filter="url(#glow)"><circle cx="242" cy="368" r="4" fill="#a56eff"/></g>
<g filter="url(#glow)"><circle cx="949" cy="732" r="4" fill="#a56eff"/></g>
<g filter="url(#glow)"><circle cx="620" cy="192" r="4" fill="#ff38d6"/></g>
<g filter="url(#glow)"><circle cx="30" cy="549" r="4" fill="#ff38d6"/></g>
<g filter="url(#glow)"><circle cx="597" cy="813" r="4" fill="#3cdcff"/></g>
<text x="620" y="526" font-family="Consolas, monospace" font-size="200" font-weight="normal" fill="#3cdcff" text-anchor="middle" filter="url(#glow)">Ω</text>
<text x="620" y="1087" font-family="Consolas, monospace" font-size="78" font-weight="bold" fill="#ebf2ff" text-anchor="middle" filter="url(#glow)">SNAPKITTY</text>
<text x="620" y="1210" font-family="Consolas, monospace" font-size="50" font-weight="bold" fill="#3cdcff" text-anchor="middle" filter="url(#glow)">SOVEREIGN COMPUTE</text>
<text x="620" y="1333" font-family="Consolas, monospace" font-size="30" font-weight="normal" fill="#ff38d6" text-anchor="middle" filter="url(#glow)">A COSMIC FIELD MANIFESTO</text>
</svg>