<?xml version="1.0" encoding="UTF-8"?>
<svg xmlns="http://www.w3.org/2000/svg" width="1240" height="1754" viewBox="0 0 1240 1754">
<defs><filter id="glow" x="-60%%" y="-60%%" width="220%%" height="220%%"><feGaussianBlur stdDeviation="8" result="b"/><feMerge><feMergeNode in="b"/><feMergeNode in="SourceGraphic"/></feMerge></filter>
<radialGradient id="vig" cx="50%%" cy="42%%" r="75%%"><stop offset="0%%" stop-color="#0a0420"/><stop offset="100%%" stop-color="#05010c"/></radialGradient></defs>
<rect width="1240" height="1754" fill="url(#vig)"/>
<circle cx="527" cy="650" r="0.85" fill="#ebf2ff" opacity="0.62"/>
<circle cx="477" cy="1118" r="0.8" fill="#ffdcf0" opacity="0.44"/>
<circle cx="1193" cy="738" r="0.42" fill="#ffdcf0" opacity="0.50"/>
<circle cx="867" cy="592" r="1.74" fill="#ffdcf0" opacity="0.81"/>
<circle cx="934" cy="257" r="1.06" fill="#ffdcf0" opacity="0.55"/>
<circle cx="1159" cy="14" r="1.11" fill="#ebf2ff" opacity="0.98"/>
<circle cx="810" cy="398" r="1.58" fill="#b4d2ff" opacity="0.59"/>
<circle cx="1033" cy="805" r="0.92" fill="#ebf2ff" opacity="0.60"/>
<circle cx="92" cy="1659" r="1.27" fill="#ffdcf0" opacity="0.61"/>
<circle cx="838" cy="959" r="1.97" fill="#ffdcf0" opacity="0.85"/>
<circle cx="535" cy="1288" r="0.69" fill="#ebf2ff" opacity="0.47"/>
<circle cx="489" cy="1382" r="1.63" fill="#b4d2ff" opacity="0.41"/>
<circle cx="528" cy="75" r="1.5" fill="#b4d2ff" opacity="0.48"/>
<circle cx="1127" cy="1202" r="1.27" fill="#ebf2ff" opacity="0.81"/>
<circle cx="224" cy="1164" r="0.75" fill="#ebf2ff" opacity="0.57"/>
<circle cx="715" cy="1491" r="0.98" fill="#ffdcf0" opacity="0.81"/>
<circle cx="60" cy="378" r="1.81" fill="#ffdcf0" opacity="0.92"/>
<circle cx="1024" cy="1414" r="1.9" fill="#ebf2ff" opacity="0.58"/>
<circle cx="848" cy="761" r="0.88" fill="#b4d2ff" opacity="0.82"/>
<circle cx="824" cy="672" r="1.1" fill="#ebf2ff" opacity="0.57"/>
<circle cx="911" cy="104" r="1.55" fill="#ebf2ff" opacity="0.77"/>
<circle cx="1211" cy="318" r="1.79" fill="#ffdcf0" opacity="0.91"/>
<circle cx="824" cy="602" r="0.71" fill="#ffdcf0" opacity="0.51"/>
<circle cx="778" cy="546" r="0.83" fill="#ffdcf0" opacity="0.45"/>
<circle cx="1139" cy="744" r="1.0" fill="#ebf2ff" opacity="0.84"/>
<circle cx="434" cy="307" r="1.23" fill="#ebf2ff" opacity="0.74"/>
<circle cx="110" cy="1497" r="0.53" fill="#b4d2ff" opacity="0.90"/>
<circle cx="265" cy="17" r="1.43" fill="#b4d2ff" opacity="0.94"/>
<circle cx="862" cy="1630" r="1.94" fill="#b4d2ff" opacity="0.55"/>
<circle cx="30" cy="1339" r="1.2" fill="#b4d2ff" opacity="0.43"/>
<circle cx="1214" cy="1403" r="0.87" fill="#b4d2ff" opacity="0.59"/>
<circle cx="1" cy="1092" r="1.59" fill="#ebf2ff" opacity="0.70"/>
<circle cx="688" cy="237" r="0.76" fill="#ebf2ff" opacity="0.96"/>
<circle cx="1217" cy="550" r="1.96" fill="#b4d2ff" opacity="0.70"/>
<circle cx="737" cy="564" r="0.66" fill="#ebf2ff" opacity="0.79"/>
<circle cx="569" cy="1736" r="1.82" fill="#ebf2ff" opacity="0.92"/>
<circle cx="153" cy="49" r="1.13" fill="#ffdcf0" opacity="0.52"/>
<circle cx="711" cy="395" r="1.49" fill="#ffdcf0" opacity="0.99"/>
<circle cx="403" cy="1536" r="0.49" fill="#ebf2ff" opacity="0.48"/>
<circle cx="887" cy="844" r="1.9" fill="#ffdcf0" opacity="0.51"/>
<circle cx="809" cy="1739" r="0.6" fill="#ebf2ff" opacity="0.74"/>
<circle cx="131" cy="37" r="1.85" fill="#ebf2ff" opacity="0.77"/>
<circle cx="723" cy="1305" r="0.7" fill="#ffdcf0" opacity="0.45"/>
<circle cx="558" cy="1078" r="0.58" fill="#b4d2ff" opacity="0.67"/>
<circle cx="181" cy="853" r="1.76" fill="#ebf2ff" opacity="0.92"/>
<circle cx="2" cy="1360" r="1.18" fill="#b4d2ff" opacity="0.88"/>
<circle cx="282" cy="1717" r="1.63" fill="#ffdcf0" opacity="0.66"/>
<circle cx="457" cy="13" r="1.54" fill="#ebf2ff" opacity="0.89"/>
<circle cx="823" cy="625" r="1.85" fill="#ffdcf0" opacity="0.81"/>
<circle cx="1030" cy="1009" r="0.63" fill="#ebf2ff" opacity="0.80"/>
<circle cx="1028" cy="1060" r="0.52" fill="#ebf2ff" opacity="0.51"/>
<circle cx="938" cy="976" r="0.48" fill="#ffdcf0" opacity="0.58"/>
<circle cx="1204" cy="352" r="0.49" fill="#b4d2ff" opacity="0.50"/>
<circle cx="1182" cy="576" r="1.6" fill="#b4d2ff" opacity="0.95"/>
<circle cx="148" cy="808" r="0.93" fill="#b4d2ff" opacity="0.65"/>
<circle cx="1056" cy="1370" r="1.5" fill="#b4d2ff" opacity="0.55"/>
<circle cx="679" cy="697" r="1.37" fill="#ffdcf0" opacity="0.65"/>
<circle cx="864" cy="889" r="0.76" fill="#b4d2ff" opacity="0.73"/>
<circle cx="572" cy="1280" r="1.18" fill="#ebf2ff" opacity="0.41"/>
<circle cx="305" cy="1137" r="1.82" fill="#b4d2ff" opacity="0.50"/>
<circle cx="547" cy="723" r="0.4" fill="#ebf2ff" opacity="0.52"/>
<circle cx="574" cy="963" r="1.61" fill="#ebf2ff" opacity="0.62"/>
<circle cx="1030" cy="53" r="1.76" fill="#ffdcf0" opacity="0.65"/>
<circle cx="1055" cy="818" r="0.76" fill="#ffdcf0" opacity="0.87"/>
<circle cx="1096" cy="1481" r="1.26" fill="#ebf2ff" opacity="0.87"/>
<circle cx="927" cy="1489" r="1.4" fill="#ebf2ff" opacity="0.80"/>
<circle cx="427" cy="796" r="0.57" fill="#b4d2ff" opacity="0.44"/>
<circle cx="1150" cy="794" r="0.96" fill="#ebf2ff" opacity="0.98"/>
<circle cx="977" cy="574" r="1.95" fill="#ffdcf0" opacity="0.83"/>
<circle cx="865" cy="1473" r="0.82" fill="#ebf2ff" opacity="0.82"/>
<circle cx="252" cy="319" r="1.15" fill="#b4d2ff" opacity="0.86"/>
<circle cx="322" cy="24" r="1.4" fill="#ffdcf0" opacity="0.73"/>
<circle cx="809" cy="705" r="1.35" fill="#ffdcf0" opacity="0.68"/>
<circle cx="940" cy="953" r="1.53" fill="#ebf2ff" opacity="0.44"/>
<circle cx="443" cy="191" r="1.19" fill="#b4d2ff" opacity="0.70"/>
<circle cx="707" cy="1625" r="1.05" fill="#b4d2ff" opacity="0.72"/>
<circle cx="854" cy="1527" r="1.15" fill="#ffdcf0" opacity="0.65"/>
<circle cx="99" cy="1453" r="1.43" fill="#ebf2ff" opacity="0.57"/>
<circle cx="245" cy="1594" r="1.13" fill="#ebf2ff" opacity="0.49"/>
<circle cx="355" cy="824" r="0.97" fill="#ebf2ff" opacity="0.71"/>
<circle cx="566" cy="545" r="1.16" fill="#b4d2ff" opacity="0.85"/>
<circle cx="1091" cy="1655" r="1.43" fill="#ffdcf0" opacity="0.99"/>
<circle cx="499" cy="808" r="1.97" fill="#ebf2ff" opacity="0.53"/>
<circle cx="564" cy="295" r="1.18" fill="#b4d2ff" opacity="0.48"/>
<circle cx="293" cy="1462" r="1.18" fill="#ebf2ff" opacity="0.83"/>
<circle cx="98" cy="186" r="0.42" fill="#b4d2ff" opacity="0.57"/>
<circle cx="1052" cy="1308" r="0.71" fill="#b4d2ff" opacity="0.72"/>
<circle cx="667" cy="133" r="0.76" fill="#b4d2ff" opacity="0.64"/>
<circle cx="1028" cy="1464" r="1.52" fill="#ffdcf0" opacity="0.78"/>
<circle cx="107" cy="1667" r="1.8" fill="#ebf2ff" opacity="0.54"/>
<circle cx="397" cy="374" r="0.72" fill="#ebf2ff" opacity="0.92"/>
<circle cx="331" cy="1210" r="1.34" fill="#ffdcf0" opacity="0.44"/>
<circle cx="1139" cy="1679" r="1.09" fill="#b4d2ff" opacity="0.95"/>
<circle cx="772" cy="583" r="1.47" fill="#b4d2ff" opacity="0.44"/>
<circle cx="1208" cy="345" r="0.68" fill="#b4d2ff" opacity="0.54"/>
<circle cx="293" cy="276" r="1.38" fill="#ebf2ff" opacity="0.98"/>
<circle cx="1169" cy="1431" r="0.56" fill="#b4d2ff" opacity="0.61"/>
<circle cx="479" cy="394" r="1.35" fill="#ffdcf0" opacity="0.65"/>
<circle cx="1122" cy="1467" r="1.3" fill="#ebf2ff" opacity="0.50"/>
<circle cx="633" cy="1370" r="0.48" fill="#ffdcf0" opacity="0.94"/>
<circle cx="466" cy="244" r="1.7" fill="#ffdcf0" opacity="0.53"/>
<circle cx="946" cy="611" r="1.17" fill="#b4d2ff" opacity="0.77"/>
<circle cx="1128" cy="1473" r="0.73" fill="#b4d2ff" opacity="0.56"/>
<circle cx="232" cy="73" r="1.65" fill="#ffdcf0" opacity="0.45"/>
<circle cx="7" cy="452" r="1.39" fill="#b4d2ff" opacity="0.90"/>
<circle cx="192" cy="32" r="1.04" fill="#b4d2ff" opacity="0.62"/>
<circle cx="279" cy="913" r="0.92" fill="#ffdcf0" opacity="0.59"/>
<circle cx="949" cy="824" r="1.84" fill="#ffdcf0" opacity="0.46"/>
<circle cx="1125" cy="682" r="1.74" fill="#ebf2ff" opacity="0.72"/>
<circle cx="277" cy="1320" r="1.17" fill="#ffdcf0" opacity="0.92"/>
<circle cx="1164" cy="1025" r="1.44" fill="#b4d2ff" opacity="0.81"/>
<circle cx="555" cy="41" r="0.91" fill="#ffdcf0" opacity="0.98"/>
<circle cx="807" cy="809" r="1.27" fill="#ebf2ff" opacity="0.54"/>
<circle cx="101" cy="834" r="1.5" fill="#ebf2ff" opacity="0.47"/>
<circle cx="91" cy="665" r="0.95" fill="#b4d2ff" opacity="0.91"/>
<circle cx="56" cy="1533" r="0.93" fill="#ebf2ff" opacity="0.73"/>
<circle cx="316" cy="254" r="1.47" fill="#ebf2ff" opacity="0.70"/>
<circle cx="1148" cy="76" r="0.7" fill="#ebf2ff" opacity="0.49"/>
<circle cx="218" cy="111" r="0.83" fill="#ebf2ff" opacity="0.96"/>
<circle cx="239" cy="318" r="1.43" fill="#b4d2ff" opacity="0.77"/>
<circle cx="696" cy="589" r="0.59" fill="#b4d2ff" opacity="0.92"/>
<circle cx="394" cy="159" r="1.56" fill="#ebf2ff" opacity="0.54"/>
<circle cx="707" cy="1011" r="0.59" fill="#b4d2ff" opacity="0.76"/>
<circle cx="1164" cy="618" r="1.84" fill="#b4d2ff" opacity="0.55"/>
<circle cx="993" cy="1712" r="1.63" fill="#ebf2ff" opacity="0.83"/>
<circle cx="604" cy="1519" r="1.67" fill="#b4d2ff" opacity="0.50"/>
<circle cx="173" cy="1484" r="1.99" fill="#ffdcf0" opacity="0.97"/>
<circle cx="1056" cy="1735" r="0.89" fill="#ffdcf0" opacity="0.46"/>
<circle cx="513" cy="1566" r="0.99" fill="#ffdcf0" opacity="0.84"/>
<circle cx="446" cy="1104" r="0.62" fill="#ebf2ff" opacity="0.93"/>
<circle cx="46" cy="674" r="0.73" fill="#ebf2ff" opacity="0.66"/>
<circle cx="34" cy="792" r="1.19" fill="#ebf2ff" opacity="0.70"/>
<circle cx="1110" cy="310" r="0.99" fill="#ebf2ff" opacity="0.84"/>
<circle cx="710" cy="811" r="1.0" fill="#b4d2ff" opacity="0.79"/>
<circle cx="372" cy="1176" r="1.2" fill="#ffdcf0" opacity="0.75"/>
<circle cx="1008" cy="489" r="0.7" fill="#b4d2ff" opacity="0.57"/>
<circle cx="250" cy="1511" r="1.61" fill="#b4d2ff" opacity="0.70"/>
<circle cx="741" cy="128" r="0.57" fill="#ebf2ff" opacity="0.90"/>
<circle cx="927" cy="322" r="1.17" fill="#ffdcf0" opacity="0.47"/>
<circle cx="667" cy="1505" r="1.36" fill="#b4d2ff" opacity="0.77"/>
<circle cx="429" cy="615" r="1.99" fill="#b4d2ff" opacity="0.79"/>
<circle cx="1162" cy="109" r="0.72" fill="#ffdcf0" opacity="0.51"/>
<circle cx="472" cy="1475" r="0.43" fill="#b4d2ff" opacity="0.93"/>
<circle cx="832" cy="1401" r="1.62" fill="#ffdcf0" opacity="0.86"/>
<circle cx="840" cy="66" r="1.21" fill="#ebf2ff" opacity="0.91"/>
<circle cx="1033" cy="168" r="1.9" fill="#ffdcf0" opacity="0.56"/>
<circle cx="1163" cy="1631" r="1.94" fill="#b4d2ff" opacity="0.66"/>
<circle cx="474" cy="1194" r="1.8" fill="#b4d2ff" opacity="0.86"/>
<circle cx="809" cy="145" r="0.96" fill="#ebf2ff" opacity="0.86"/>
<circle cx="1157" cy="1248" r="0.43" fill="#ebf2ff" opacity="0.61"/>
<circle cx="665" cy="381" r="1.46" fill="#ffdcf0" opacity="0.96"/>
<circle cx="1077" cy="1030" r="1.5" fill="#ebf2ff" opacity="0.58"/>
<circle cx="456" cy="1087" r="0.98" fill="#ebf2ff" opacity="0.69"/>
<circle cx="136" cy="778" r="1.38" fill="#b4d2ff" opacity="0.89"/>
<circle cx="334" cy="522" r="0.82" fill="#ffdcf0" opacity="0.68"/>
<circle cx="1068" cy="270" r="0.85" fill="#b4d2ff" opacity="0.86"/>
<circle cx="710" cy="1085" r="1.59" fill="#ebf2ff" opacity="0.56"/>
<circle cx="16" cy="1045" r="0.73" fill="#b4d2ff" opacity="0.78"/>
<circle cx="849" cy="196" r="1.21" fill="#ebf2ff" opacity="0.51"/>
<circle cx="170" cy="1154" r="0.93" fill="#b4d2ff" opacity="0.60"/>
<circle cx="1094" cy="697" r="1.27" fill="#ebf2ff" opacity="0.43"/>
<circle cx="1047" cy="423" r="1.77" fill="#b4d2ff" opacity="0.40"/>
<circle cx="764" cy="422" r="0.72" fill="#b4d2ff" opacity="0.44"/>
<circle cx="549" cy="293" r="1.02" fill="#ffdcf0" opacity="0.52"/>
<circle cx="56" cy="1078" r="0.42" fill="#b4d2ff" opacity="0.96"/>
<circle cx="140" cy="1553" r="0.57" fill="#ffdcf0" opacity="0.84"/>
<circle cx="495" cy="1305" r="1.85" fill="#ffdcf0" opacity="0.94"/>
<circle cx="388" cy="1659" r="0.98" fill="#ebf2ff" opacity="0.42"/>
<circle cx="1064" cy="1455" r="1.43" fill="#ebf2ff" opacity="0.80"/>
<circle cx="97" cy="114" r="0.68" fill="#b4d2ff" opacity="0.69"/>
<circle cx="45" cy="1731" r="1.67" fill="#ffdcf0" opacity="0.85"/>
<circle cx="1003" cy="879" r="0.81" fill="#b4d2ff" opacity="0.59"/>
<circle cx="644" cy="1705" r="1.51" fill="#b4d2ff" opacity="0.72"/>
<circle cx="864" cy="473" r="1.65" fill="#ebf2ff" opacity="0.57"/>
<circle cx="710" cy="1548" r="0.73" fill="#ffdcf0" opacity="0.42"/>
<circle cx="629" cy="361" r="1.38" fill="#ffdcf0" opacity="0.44"/>
<circle cx="285" cy="1035" r="0.55" fill="#ffdcf0" opacity="0.98"/>
<circle cx="761" cy="339" r="1.65" fill="#ffdcf0" opacity="0.60"/>
<circle cx="370" cy="686" r="1.51" fill="#ebf2ff" opacity="0.44"/>
<circle cx="39" cy="154" r="0.88" fill="#ffdcf0" opacity="0.58"/>
<circle cx="1209" cy="13" r="1.0" fill="#ebf2ff" opacity="0.46"/>
<circle cx="751" cy="1427" r="0.44" fill="#ffdcf0" opacity="0.48"/>
<circle cx="742" cy="695" r="1.32" fill="#b4d2ff" opacity="0.98"/>
<circle cx="757" cy="189" r="1.09" fill="#b4d2ff" opacity="0.89"/>
<circle cx="690" cy="860" r="1.03" fill="#ffdcf0" opacity="0.81"/>
<circle cx="509" cy="856" r="1.17" fill="#b4d2ff" opacity="0.87"/>
<circle cx="1135" cy="1545" r="1.18" fill="#ffdcf0" opacity="0.61"/>
<circle cx="993" cy="1632" r="1.3" fill="#ebf2ff" opacity="0.83"/>
<circle cx="860" cy="680" r="0.58" fill="#ffdcf0" opacity="0.72"/>
<circle cx="478" cy="1146" r="1.79" fill="#ffdcf0" opacity="0.40"/>
<circle cx="1024" cy="1111" r="1.56" fill="#b4d2ff" opacity="0.68"/>
<circle cx="834" cy="637" r="0.87" fill="#b4d2ff" opacity="0.53"/>
<circle cx="865" cy="706" r="1.87" fill="#ebf2ff" opacity="0.67"/>
<circle cx="127" cy="1168" r="0.85" fill="#b4d2ff" opacity="0.95"/>
<circle cx="342" cy="210" r="0.74" fill="#ffdcf0" opacity="0.95"/>
<circle cx="238" cy="1754" r="1.93" fill="#b4d2ff" opacity="0.81"/>
<circle cx="705" cy="287" r="0.72" fill="#ffdcf0" opacity="0.45"/>
<circle cx="621" cy="1585" r="1.09" fill="#b4d2ff" opacity="0.73"/>
<circle cx="993" cy="565" r="1.21" fill="#ebf2ff" opacity="0.70"/>
<circle cx="18" cy="681" r="1.34" fill="#ffdcf0" opacity="0.67"/>
<circle cx="414" cy="504" r="1.8" fill="#b4d2ff" opacity="0.62"/>
<circle cx="921" cy="1599" r="0.67" fill="#b4d2ff" opacity="0.70"/>
<circle cx="142" cy="1137" r="1.1" fill="#b4d2ff" opacity="0.63"/>
<circle cx="1127" cy="625" r="1.5" fill="#b4d2ff" opacity="0.61"/>
<circle cx="753" cy="1242" r="0.77" fill="#ebf2ff" opacity="0.43"/>
<circle cx="1098" cy="918" r="1.78" fill="#ffdcf0" opacity="0.64"/>
<circle cx="710" cy="216" r="0.88" fill="#ebf2ff" opacity="0.68"/>
<circle cx="283" cy="436" r="0.59" fill="#ffdcf0" opacity="0.70"/>
<circle cx="272" cy="1438" r="1.5" fill="#ffdcf0" opacity="0.68"/>
<circle cx="67" cy="578" r="1.26" fill="#ebf2ff" opacity="0.87"/>
<circle cx="1103" cy="782" r="0.77" fill="#b4d2ff" opacity="0.46"/>
<circle cx="173" cy="1276" r="0.56" fill="#ffdcf0" opacity="0.52"/>
<circle cx="1130" cy="1652" r="0.62" fill="#ebf2ff" opacity="0.80"/>
<circle cx="913" cy="791" r="1.72" fill="#ffdcf0" opacity="0.73"/>
<circle cx="196" cy="868" r="1.32" fill="#ffdcf0" opacity="0.63"/>
<circle cx="197" cy="1043" r="0.98" fill="#ebf2ff" opacity="0.65"/>
<circle cx="64" cy="623" r="1.99" fill="#ffdcf0" opacity="0.53"/>
<circle cx="573" cy="147" r="0.8" fill="#b4d2ff" opacity="0.50"/>
<circle cx="568" cy="1291" r="1.09" fill="#b4d2ff" opacity="0.63"/>
<circle cx="860" cy="1365" r="0.63" fill="#b4d2ff" opacity="0.40"/>
<g filter="url(#glow)"><circle cx="620" cy="736" r="30" fill="#3cdcff"/></g>
<circle cx="620" cy="736" r="140" fill="none" stroke="#3cdcff" stroke-width="2" opacity="0.8"/>
<g filter="url(#glow)"><circle cx="900" cy="426" r="4" fill="#a56eff"/></g>
<g filter="url(#glow)"><circle cx="323" cy="405" r="4" fill="#a56eff"/></g>
<g filter="url(#glow)"><circle cx="710" cy="889" r="4" fill="#a56eff"/></g>
<g filter="url(#glow)"><circle cx="265" cy="507" r="4" fill="#a56eff"/></g>
<g filter="url(#glow)"><circle cx="555" cy="890" r="4" fill="#a56eff"/></g>
<g filter="url(#glow)"><circle cx="455" cy="482" r="4" fill="#3cdcff"/></g>
<g filter="url(#glow)"><circle cx="469" cy="1083" r="4" fill="#3cdcff"/></g>
<g filter="url(#glow)"><circle cx="366" cy="531" r="4" fill="#ff38d6"/></g>
<g filter="url(#glow)"><circle cx="274" cy="574" r="4" fill="#ff38d6"/></g>
<g filter="url(#glow)"><circle cx="714" cy="1107" r="4" fill="#a56eff"/></g>
<g filter="url(#glow)"><circle cx="709" cy="420" r="4" fill="#ff38d6"/></g>
<g filter="url(#glow)"><circle cx="1031" cy="746" r="4" fill="#3cdcff"/></g>
<g filter="url(#glow)"><circle cx="556" cy="549" r="4" fill="#a56eff"/></g>
<g filter="url(#glow)"><circle cx="405" cy="810" r="4" fill="#3cdcff"/></g>
<g filter="url(#glow)"><circle cx="99" cy="695" r="4" fill="#ff38d6"/></g>
<g filter="url(#glow)"><circle cx="221" cy="697" r="4" fill="#ff38d6"/></g>
<g filter="url(#glow)"><circle cx="1119" cy="632" r="4" fill="#ff38d6"/></g>
<g filter="url(#glow)"><circle cx="988" cy="955" r="4" fill="#ff38d6"/></g>
<g filter="url(#glow)"><circle cx="664" cy="963" r="4" fill="#ff38d6"/></g>
<g filter="url(#glow)"><circle cx="936" cy="825" r="4" fill="#ff38d6"/></g>
<g filter="url(#glow)"><circle cx="845" cy="878" r="4" fill="#3cdcff"/></g>
<g filter="url(#glow)"><circle cx="1071" cy="696" r="4" fill="#ff38d6"/></g>
<text x="620" y="736" font-family="Consolas, monospace" font-size="170" font-weight="normal" fill="#3cdcff" text-anchor="middle" filter="url(#glow)">Ω</text>
<text x="620" y="1157" font-family="Consolas, monospace" font-size="70" font-weight="bold" fill="#46ff78" text-anchor="middle" filter="url(#glow)">THE CAGE HOLDS</text>
<text x="620" y="1280" font-family="Consolas, monospace" font-size="46" font-weight="bold" fill="#ebf2ff" text-anchor="middle" filter="url(#glow)">No sorry remains.</text>
</svg>