<?xml version="1.0" encoding="UTF-8"?>
<svg xmlns="http://www.w3.org/2000/svg" width="1240" height="1754" viewBox="0 0 1240 1754">
<defs><filter id="glow" x="-60%%" y="-60%%" width="220%%" height="220%%"><feGaussianBlur stdDeviation="8" result="b"/><feMerge><feMergeNode in="b"/><feMergeNode in="SourceGraphic"/></feMerge></filter>
<radialGradient id="vig" cx="50%%" cy="42%%" r="75%%"><stop offset="0%%" stop-color="#0a0420"/><stop offset="100%%" stop-color="#05010c"/></radialGradient></defs>
<rect width="1240" height="1754" fill="url(#vig)"/>
<circle cx="713" cy="770" r="0.87" fill="#ffdcf0" opacity="0.46"/>
<circle cx="227" cy="82" r="1.36" fill="#b4d2ff" opacity="0.83"/>
<circle cx="584" cy="272" r="1.14" fill="#b4d2ff" opacity="0.74"/>
<circle cx="133" cy="502" r="0.76" fill="#ebf2ff" opacity="0.42"/>
<circle cx="389" cy="22" r="1.33" fill="#b4d2ff" opacity="0.77"/>
<circle cx="471" cy="665" r="1.03" fill="#b4d2ff" opacity="0.90"/>
<circle cx="1164" cy="249" r="0.79" fill="#ebf2ff" opacity="0.42"/>
<circle cx="816" cy="1583" r="1.33" fill="#b4d2ff" opacity="0.82"/>
<circle cx="1057" cy="129" r="1.43" fill="#b4d2ff" opacity="0.59"/>
<circle cx="159" cy="1617" r="0.54" fill="#ffdcf0" opacity="0.86"/>
<circle cx="601" cy="47" r="0.84" fill="#b4d2ff" opacity="0.62"/>
<circle cx="718" cy="564" r="0.99" fill="#ebf2ff" opacity="0.69"/>
<circle cx="565" cy="509" r="1.32" fill="#ebf2ff" opacity="0.86"/>
<circle cx="1055" cy="1158" r="0.74" fill="#ffdcf0" opacity="0.97"/>
<circle cx="609" cy="406" r="0.55" fill="#b4d2ff" opacity="0.88"/>
<circle cx="1062" cy="1234" r="0.46" fill="#ebf2ff" opacity="0.93"/>
<circle cx="954" cy="1580" r="0.77" fill="#b4d2ff" opacity="0.82"/>
<circle cx="831" cy="856" r="1.07" fill="#b4d2ff" opacity="0.67"/>
<circle cx="836" cy="460" r="0.51" fill="#b4d2ff" opacity="0.51"/>
<circle cx="896" cy="1323" r="0.97" fill="#ebf2ff" opacity="0.72"/>
<circle cx="442" cy="304" r="0.94" fill="#ebf2ff" opacity="0.70"/>
<circle cx="775" cy="1177" r="0.4" fill="#b4d2ff" opacity="0.79"/>
<circle cx="467" cy="972" r="1.14" fill="#ffdcf0" opacity="0.66"/>
<circle cx="652" cy="322" r="0.68" fill="#ebf2ff" opacity="0.85"/>
<circle cx="561" cy="537" r="1.13" fill="#ebf2ff" opacity="0.59"/>
<circle cx="585" cy="748" r="1.26" fill="#ebf2ff" opacity="0.43"/>
<circle cx="798" cy="562" r="0.74" fill="#ebf2ff" opacity="0.48"/>
<circle cx="1189" cy="1425" r="0.93" fill="#ebf2ff" opacity="1.00"/>
<circle cx="777" cy="800" r="1.37" fill="#ffdcf0" opacity="0.77"/>
<circle cx="301" cy="1540" r="0.62" fill="#ffdcf0" opacity="0.61"/>
<circle cx="762" cy="675" r="1.35" fill="#ffdcf0" opacity="0.43"/>
<circle cx="560" cy="375" r="0.57" fill="#ebf2ff" opacity="0.41"/>
<circle cx="571" cy="661" r="1.38" fill="#ebf2ff" opacity="0.53"/>
<circle cx="153" cy="1733" r="1.38" fill="#ffdcf0" opacity="0.59"/>
<circle cx="768" cy="872" r="1.39" fill="#b4d2ff" opacity="0.48"/>
<circle cx="746" cy="77" r="1.37" fill="#ebf2ff" opacity="0.58"/>
<circle cx="619" cy="21" r="0.88" fill="#b4d2ff" opacity="0.83"/>
<circle cx="1123" cy="1706" r="0.64" fill="#ffdcf0" opacity="0.92"/>
<circle cx="491" cy="1234" r="1.24" fill="#ebf2ff" opacity="0.72"/>
<circle cx="450" cy="1171" r="0.68" fill="#ffdcf0" opacity="0.77"/>
<circle cx="629" cy="794" r="1.22" fill="#ebf2ff" opacity="0.99"/>
<circle cx="680" cy="28" r="0.93" fill="#b4d2ff" opacity="0.77"/>
<circle cx="711" cy="1597" r="0.67" fill="#ebf2ff" opacity="0.76"/>
<circle cx="113" cy="750" r="0.47" fill="#b4d2ff" opacity="0.52"/>
<circle cx="742" cy="263" r="0.51" fill="#ffdcf0" opacity="0.86"/>
<circle cx="488" cy="625" r="0.47" fill="#b4d2ff" opacity="0.97"/>
<circle cx="931" cy="1392" r="0.66" fill="#b4d2ff" opacity="0.41"/>
<circle cx="1165" cy="359" r="1.02" fill="#ebf2ff" opacity="0.54"/>
<circle cx="393" cy="491" r="1.42" fill="#ebf2ff" opacity="0.63"/>
<circle cx="1084" cy="1564" r="0.51" fill="#ebf2ff" opacity="0.76"/>
<circle cx="532" cy="439" r="0.49" fill="#b4d2ff" opacity="0.90"/>
<circle cx="74" cy="21" r="0.54" fill="#b4d2ff" opacity="0.59"/>
<circle cx="322" cy="1685" r="1.29" fill="#b4d2ff" opacity="0.87"/>
<circle cx="178" cy="641" r="1.12" fill="#ffdcf0" opacity="0.85"/>
<circle cx="421" cy="411" r="0.61" fill="#ffdcf0" opacity="0.65"/>
<circle cx="833" cy="1477" r="1.45" fill="#ebf2ff" opacity="0.93"/>
<circle cx="134" cy="297" r="1.16" fill="#b4d2ff" opacity="0.42"/>
<circle cx="308" cy="977" r="0.79" fill="#ebf2ff" opacity="0.53"/>
<circle cx="843" cy="247" r="0.61" fill="#ebf2ff" opacity="0.81"/>
<circle cx="684" cy="1423" r="1.14" fill="#ebf2ff" opacity="0.41"/>
<circle cx="162" cy="529" r="1.37" fill="#b4d2ff" opacity="0.89"/>
<circle cx="663" cy="788" r="1.08" fill="#b4d2ff" opacity="0.91"/>
<circle cx="875" cy="989" r="0.73" fill="#ebf2ff" opacity="0.51"/>
<circle cx="195" cy="893" r="1.02" fill="#ffdcf0" opacity="0.92"/>
<circle cx="950" cy="548" r="1.22" fill="#b4d2ff" opacity="0.84"/>
<circle cx="608" cy="1527" r="0.7" fill="#ebf2ff" opacity="0.96"/>
<circle cx="346" cy="985" r="0.78" fill="#ebf2ff" opacity="0.73"/>
<circle cx="314" cy="188" r="0.83" fill="#ebf2ff" opacity="0.44"/>
<circle cx="27" cy="526" r="0.97" fill="#ebf2ff" opacity="0.77"/>
<circle cx="1034" cy="81" r="1.47" fill="#b4d2ff" opacity="0.58"/>
<circle cx="1126" cy="1421" r="1.28" fill="#ebf2ff" opacity="0.87"/>
<circle cx="72" cy="990" r="1.14" fill="#ffdcf0" opacity="0.79"/>
<circle cx="490" cy="841" r="1.28" fill="#ffdcf0" opacity="0.63"/>
<circle cx="637" cy="536" r="1.29" fill="#ffdcf0" opacity="0.98"/>
<circle cx="681" cy="1249" r="1.38" fill="#b4d2ff" opacity="0.41"/>
<circle cx="1120" cy="1519" r="0.5" fill="#ebf2ff" opacity="0.68"/>
<circle cx="366" cy="658" r="1.46" fill="#b4d2ff" opacity="0.73"/>
<circle cx="252" cy="354" r="1.33" fill="#ebf2ff" opacity="0.59"/>
<circle cx="381" cy="654" r="1.23" fill="#ffdcf0" opacity="0.65"/>
<circle cx="501" cy="1645" r="1.41" fill="#b4d2ff" opacity="0.68"/>
<circle cx="311" cy="1751" r="1.1" fill="#b4d2ff" opacity="0.49"/>
<circle cx="14" cy="1194" r="0.89" fill="#b4d2ff" opacity="0.72"/>
<circle cx="52" cy="1137" r="1.11" fill="#ffdcf0" opacity="0.55"/>
<circle cx="899" cy="934" r="0.67" fill="#ffdcf0" opacity="0.96"/>
<circle cx="156" cy="25" r="1.28" fill="#ebf2ff" opacity="0.60"/>
<circle cx="467" cy="574" r="1.11" fill="#b4d2ff" opacity="0.94"/>
<circle cx="760" cy="1196" r="1.38" fill="#ebf2ff" opacity="0.75"/>
<circle cx="462" cy="1486" r="0.43" fill="#ebf2ff" opacity="0.44"/>
<circle cx="416" cy="603" r="1.48" fill="#ffdcf0" opacity="0.77"/>
<circle cx="732" cy="187" r="0.95" fill="#ebf2ff" opacity="0.41"/>
<circle cx="277" cy="1512" r="0.77" fill="#ebf2ff" opacity="0.96"/>
<circle cx="1121" cy="1280" r="0.81" fill="#ebf2ff" opacity="0.48"/>
<circle cx="1186" cy="574" r="0.68" fill="#ffdcf0" opacity="0.57"/>
<circle cx="20" cy="399" r="0.7" fill="#b4d2ff" opacity="0.58"/>
<circle cx="432" cy="1619" r="0.52" fill="#b4d2ff" opacity="0.82"/>
<circle cx="890" cy="71" r="1.49" fill="#b4d2ff" opacity="0.53"/>
<circle cx="43" cy="1553" r="0.57" fill="#b4d2ff" opacity="0.64"/>
<circle cx="623" cy="621" r="1.25" fill="#ffdcf0" opacity="0.55"/>
<circle cx="1134" cy="699" r="0.97" fill="#ffdcf0" opacity="0.75"/>
<circle cx="614" cy="169" r="0.47" fill="#ffdcf0" opacity="0.59"/>
<circle cx="434" cy="738" r="1.27" fill="#ffdcf0" opacity="0.43"/>
<circle cx="459" cy="343" r="0.55" fill="#b4d2ff" opacity="0.54"/>
<circle cx="655" cy="600" r="0.76" fill="#ffdcf0" opacity="0.90"/>
<circle cx="403" cy="1154" r="1.19" fill="#ebf2ff" opacity="0.74"/>
<circle cx="33" cy="1094" r="1.08" fill="#b4d2ff" opacity="0.72"/>
<circle cx="1047" cy="783" r="1.26" fill="#b4d2ff" opacity="0.99"/>
<circle cx="436" cy="200" r="0.98" fill="#ffdcf0" opacity="0.55"/>
<circle cx="1063" cy="356" r="1.47" fill="#ebf2ff" opacity="0.70"/>
<circle cx="216" cy="1663" r="1.39" fill="#ffdcf0" opacity="0.72"/>
<circle cx="284" cy="20" r="1.36" fill="#b4d2ff" opacity="0.87"/>
<circle cx="113" cy="828" r="0.63" fill="#b4d2ff" opacity="0.48"/>
<circle cx="987" cy="1290" r="0.91" fill="#b4d2ff" opacity="0.52"/>
<circle cx="173" cy="794" r="1.33" fill="#ffdcf0" opacity="0.66"/>
<circle cx="647" cy="873" r="0.47" fill="#b4d2ff" opacity="0.95"/>
<circle cx="426" cy="796" r="0.44" fill="#ebf2ff" opacity="0.84"/>
<circle cx="942" cy="776" r="1.14" fill="#b4d2ff" opacity="0.58"/>
<circle cx="545" cy="633" r="1.28" fill="#ebf2ff" opacity="0.93"/>
<circle cx="837" cy="964" r="1.11" fill="#ebf2ff" opacity="0.86"/>
<circle cx="1088" cy="759" r="0.82" fill="#ebf2ff" opacity="0.89"/>
<circle cx="847" cy="814" r="0.82" fill="#ebf2ff" opacity="0.64"/>
<g filter="url(#glow)"><polyline points="360,380 250,590 470,590" fill="none" stroke="#a56eff" stroke-width="3" stroke-linecap="round" stroke-linejoin="round"/></g>
<circle cx="360" cy="490" r="120" fill="none" stroke="#a56eff" stroke-width="2" opacity="0.8"/>
<text x="360" y="740" font-family="Consolas, monospace" font-size="52" font-weight="bold" fill="#ebf2ff" text-anchor="middle" filter="url(#glow)">ECHO</text>
<g filter="url(#glow)"><line x1="880" y1="500" x2="880" y2="360" stroke="#46ff78" stroke-width="3" stroke-linecap="round"/></g>
<g filter="url(#glow)"><line x1="880" y1="500" x2="1001" y2="569" stroke="#46ff78" stroke-width="3" stroke-linecap="round"/></g>
<g filter="url(#glow)"><line x1="880" y1="500" x2="759" y2="570" stroke="#46ff78" stroke-width="3" stroke-linecap="round"/></g>
<g filter="url(#glow)"><circle cx="880" cy="500" r="14" fill="#ebf2ff"/></g>
<text x="880" y="740" font-family="Consolas, monospace" font-size="52" font-weight="bold" fill="#ebf2ff" text-anchor="middle" filter="url(#glow)">VECTOR</text>
<text x="620" y="1634" font-family="Consolas, monospace" font-size="34" font-weight="bold" fill="#a56eff" text-anchor="middle" filter="url(#glow)">AGENT ROSTER · NINE WATCHERS</text>
</svg>