<?xml version="1.0" encoding="UTF-8"?>
<svg xmlns="http://www.w3.org/2000/svg" width="1240" height="1754" viewBox="0 0 1240 1754">
<defs><filter id="glow" x="-60%%" y="-60%%" width="220%%" height="220%%"><feGaussianBlur stdDeviation="8" result="b"/><feMerge><feMergeNode in="b"/><feMergeNode in="SourceGraphic"/></feMerge></filter>
<radialGradient id="vig" cx="50%%" cy="42%%" r="75%%"><stop offset="0%%" stop-color="#0a0420"/><stop offset="100%%" stop-color="#05010c"/></radialGradient></defs>
<rect width="1240" height="1754" fill="url(#vig)"/>
<circle cx="412" cy="1307" r="1.31" fill="#ffdcf0" opacity="0.54"/>
<circle cx="390" cy="1029" r="1.52" fill="#ebf2ff" opacity="0.48"/>
<circle cx="137" cy="1467" r="0.72" fill="#b4d2ff" opacity="0.58"/>
<circle cx="272" cy="1041" r="1.39" fill="#ebf2ff" opacity="0.65"/>
<circle cx="774" cy="1434" r="0.96" fill="#ebf2ff" opacity="0.43"/>
<circle cx="185" cy="531" r="0.49" fill="#ebf2ff" opacity="0.85"/>
<circle cx="47" cy="1535" r="0.93" fill="#b4d2ff" opacity="0.97"/>
<circle cx="103" cy="1679" r="0.53" fill="#b4d2ff" opacity="0.86"/>
<circle cx="879" cy="680" r="0.44" fill="#b4d2ff" opacity="0.47"/>
<circle cx="558" cy="1286" r="1.11" fill="#b4d2ff" opacity="0.96"/>
<circle cx="193" cy="1146" r="0.83" fill="#ffdcf0" opacity="0.83"/>
<circle cx="144" cy="973" r="0.71" fill="#ebf2ff" opacity="0.63"/>
<circle cx="1098" cy="1294" r="0.93" fill="#ebf2ff" opacity="0.89"/>
<circle cx="5" cy="634" r="1.48" fill="#b4d2ff" opacity="0.92"/>
<circle cx="643" cy="827" r="1.12" fill="#ebf2ff" opacity="0.58"/>
<circle cx="568" cy="1248" r="0.7" fill="#ffdcf0" opacity="0.72"/>
<circle cx="229" cy="318" r="1.01" fill="#ffdcf0" opacity="0.55"/>
<circle cx="1213" cy="175" r="1.41" fill="#ffdcf0" opacity="0.62"/>
<circle cx="423" cy="621" r="1.28" fill="#ebf2ff" opacity="0.72"/>
<circle cx="47" cy="175" r="1.32" fill="#ffdcf0" opacity="0.92"/>
<circle cx="1151" cy="1040" r="0.87" fill="#ffdcf0" opacity="0.47"/>
<circle cx="1225" cy="113" r="1.6" fill="#ebf2ff" opacity="0.73"/>
<circle cx="1008" cy="1742" r="0.9" fill="#ffdcf0" opacity="0.61"/>
<circle cx="486" cy="1501" r="1.28" fill="#ffdcf0" opacity="0.64"/>
<circle cx="834" cy="768" r="0.64" fill="#ebf2ff" opacity="0.63"/>
<circle cx="410" cy="1553" r="0.4" fill="#ffdcf0" opacity="0.62"/>
<circle cx="87" cy="1596" r="0.47" fill="#b4d2ff" opacity="0.47"/>
<circle cx="1073" cy="1498" r="0.96" fill="#b4d2ff" opacity="0.75"/>
<circle cx="1128" cy="740" r="0.82" fill="#b4d2ff" opacity="0.80"/>
<circle cx="1222" cy="828" r="1.56" fill="#b4d2ff" opacity="0.97"/>
<circle cx="1117" cy="808" r="1.0" fill="#ffdcf0" opacity="0.95"/>
<circle cx="39" cy="149" r="0.93" fill="#ffdcf0" opacity="0.94"/>
<circle cx="202" cy="231" r="1.58" fill="#b4d2ff" opacity="0.69"/>
<circle cx="526" cy="1575" r="1.11" fill="#ebf2ff" opacity="0.74"/>
<circle cx="199" cy="979" r="1.37" fill="#ffdcf0" opacity="0.69"/>
<circle cx="1029" cy="1708" r="1.13" fill="#ffdcf0" opacity="0.90"/>
<circle cx="1176" cy="44" r="0.41" fill="#ebf2ff" opacity="0.54"/>
<circle cx="870" cy="748" r="1.5" fill="#ffdcf0" opacity="0.67"/>
<circle cx="1184" cy="310" r="0.78" fill="#b4d2ff" opacity="0.83"/>
<circle cx="403" cy="340" r="0.72" fill="#ffdcf0" opacity="0.65"/>
<circle cx="184" cy="1709" r="0.48" fill="#ebf2ff" opacity="0.63"/>
<circle cx="665" cy="461" r="1.25" fill="#b4d2ff" opacity="0.89"/>
<circle cx="81" cy="530" r="1.23" fill="#ebf2ff" opacity="0.82"/>
<circle cx="92" cy="1256" r="0.8" fill="#ffdcf0" opacity="0.73"/>
<circle cx="221" cy="153" r="0.74" fill="#ffdcf0" opacity="0.60"/>
<circle cx="965" cy="1403" r="0.53" fill="#b4d2ff" opacity="0.56"/>
<circle cx="157" cy="1725" r="0.64" fill="#ebf2ff" opacity="0.53"/>
<circle cx="1232" cy="1077" r="0.88" fill="#ffdcf0" opacity="0.79"/>
<circle cx="62" cy="790" r="0.93" fill="#b4d2ff" opacity="0.69"/>
<circle cx="296" cy="1306" r="1.53" fill="#b4d2ff" opacity="0.80"/>
<circle cx="905" cy="1378" r="0.79" fill="#ffdcf0" opacity="0.56"/>
<circle cx="1054" cy="1309" r="0.84" fill="#b4d2ff" opacity="0.82"/>
<circle cx="105" cy="819" r="0.95" fill="#ebf2ff" opacity="0.91"/>
<circle cx="755" cy="262" r="0.43" fill="#ebf2ff" opacity="0.51"/>
<circle cx="543" cy="1411" r="0.57" fill="#b4d2ff" opacity="0.55"/>
<circle cx="1062" cy="1205" r="1.15" fill="#b4d2ff" opacity="0.47"/>
<circle cx="344" cy="1670" r="0.74" fill="#ebf2ff" opacity="0.90"/>
<circle cx="43" cy="1222" r="0.75" fill="#ffdcf0" opacity="0.52"/>
<circle cx="1041" cy="42" r="0.97" fill="#ebf2ff" opacity="0.56"/>
<circle cx="159" cy="926" r="1.6" fill="#b4d2ff" opacity="0.86"/>
<circle cx="1007" cy="1081" r="0.66" fill="#b4d2ff" opacity="0.47"/>
<circle cx="466" cy="170" r="1.27" fill="#ffdcf0" opacity="0.44"/>
<circle cx="1035" cy="1235" r="0.92" fill="#ebf2ff" opacity="0.53"/>
<circle cx="489" cy="1270" r="1.23" fill="#ffdcf0" opacity="0.50"/>
<circle cx="152" cy="367" r="0.74" fill="#ebf2ff" opacity="0.67"/>
<circle cx="97" cy="83" r="0.63" fill="#ffdcf0" opacity="0.91"/>
<circle cx="720" cy="1162" r="0.94" fill="#ffdcf0" opacity="0.91"/>
<circle cx="621" cy="771" r="1.01" fill="#ffdcf0" opacity="0.81"/>
<circle cx="48" cy="715" r="1.2" fill="#b4d2ff" opacity="0.64"/>
<circle cx="168" cy="358" r="0.6" fill="#ebf2ff" opacity="0.48"/>
<circle cx="555" cy="164" r="1.15" fill="#ebf2ff" opacity="0.51"/>
<circle cx="480" cy="1201" r="1.59" fill="#ebf2ff" opacity="0.85"/>
<circle cx="80" cy="571" r="0.64" fill="#b4d2ff" opacity="0.76"/>
<circle cx="1210" cy="612" r="1.08" fill="#ffdcf0" opacity="0.43"/>
<circle cx="500" cy="555" r="1.2" fill="#ffdcf0" opacity="0.83"/>
<circle cx="946" cy="1575" r="1.48" fill="#b4d2ff" opacity="0.91"/>
<circle cx="365" cy="1164" r="0.63" fill="#b4d2ff" opacity="0.51"/>
<circle cx="237" cy="1033" r="1.04" fill="#b4d2ff" opacity="0.58"/>
<circle cx="325" cy="1540" r="1.58" fill="#ebf2ff" opacity="0.97"/>
<circle cx="966" cy="1032" r="0.64" fill="#ffdcf0" opacity="0.92"/>
<circle cx="467" cy="828" r="0.73" fill="#b4d2ff" opacity="0.58"/>
<circle cx="53" cy="591" r="0.64" fill="#ffdcf0" opacity="0.72"/>
<circle cx="737" cy="1053" r="1.31" fill="#b4d2ff" opacity="0.63"/>
<circle cx="650" cy="1500" r="0.67" fill="#b4d2ff" opacity="0.64"/>
<circle cx="394" cy="735" r="1.31" fill="#ffdcf0" opacity="0.49"/>
<circle cx="101" cy="1365" r="0.76" fill="#b4d2ff" opacity="0.87"/>
<circle cx="951" cy="233" r="0.53" fill="#ebf2ff" opacity="0.48"/>
<circle cx="691" cy="388" r="1.42" fill="#ffdcf0" opacity="0.42"/>
<circle cx="575" cy="629" r="1.42" fill="#ffdcf0" opacity="0.53"/>
<circle cx="43" cy="797" r="0.58" fill="#ffdcf0" opacity="0.58"/>
<circle cx="701" cy="359" r="1.3" fill="#b4d2ff" opacity="0.70"/>
<circle cx="452" cy="1300" r="0.62" fill="#ebf2ff" opacity="0.50"/>
<circle cx="1022" cy="727" r="1.25" fill="#ffdcf0" opacity="0.80"/>
<circle cx="756" cy="1368" r="1.31" fill="#b4d2ff" opacity="0.79"/>
<circle cx="778" cy="1361" r="0.84" fill="#ebf2ff" opacity="0.42"/>
<circle cx="965" cy="1470" r="1.43" fill="#b4d2ff" opacity="0.63"/>
<circle cx="153" cy="346" r="1.12" fill="#b4d2ff" opacity="0.84"/>
<circle cx="1124" cy="107" r="1.6" fill="#ebf2ff" opacity="0.50"/>
<circle cx="602" cy="454" r="0.57" fill="#ebf2ff" opacity="0.58"/>
<circle cx="381" cy="1549" r="1.12" fill="#b4d2ff" opacity="0.88"/>
<circle cx="736" cy="1640" r="1.33" fill="#b4d2ff" opacity="0.44"/>
<circle cx="342" cy="872" r="1.38" fill="#b4d2ff" opacity="0.83"/>
<circle cx="1162" cy="571" r="1.35" fill="#b4d2ff" opacity="0.99"/>
<circle cx="1137" cy="1208" r="0.95" fill="#ffdcf0" opacity="0.93"/>
<circle cx="364" cy="78" r="1.3" fill="#ebf2ff" opacity="0.76"/>
<circle cx="830" cy="1682" r="1.3" fill="#ebf2ff" opacity="0.53"/>
<circle cx="1100" cy="1451" r="0.68" fill="#ffdcf0" opacity="0.60"/>
<circle cx="800" cy="850" r="1.27" fill="#b4d2ff" opacity="0.93"/>
<circle cx="1080" cy="396" r="0.45" fill="#ffdcf0" opacity="0.77"/>
<circle cx="1020" cy="1090" r="0.53" fill="#ffdcf0" opacity="0.55"/>
<circle cx="118" cy="1752" r="1.54" fill="#ebf2ff" opacity="0.48"/>
<circle cx="877" cy="1099" r="0.44" fill="#ffdcf0" opacity="0.84"/>
<circle cx="530" cy="1336" r="0.74" fill="#ffdcf0" opacity="0.59"/>
<circle cx="45" cy="461" r="0.56" fill="#b4d2ff" opacity="0.71"/>
<circle cx="121" cy="1116" r="1.37" fill="#ffdcf0" opacity="1.00"/>
<circle cx="722" cy="1187" r="1.23" fill="#b4d2ff" opacity="0.45"/>
<circle cx="880" cy="1413" r="1.35" fill="#b4d2ff" opacity="0.78"/>
<circle cx="510" cy="478" r="0.73" fill="#ffdcf0" opacity="0.80"/>
<circle cx="1143" cy="195" r="0.41" fill="#b4d2ff" opacity="0.44"/>
<circle cx="655" cy="899" r="0.52" fill="#ebf2ff" opacity="0.55"/>
<circle cx="626" cy="295" r="0.85" fill="#ffdcf0" opacity="0.70"/>
<circle cx="275" cy="1199" r="1.07" fill="#ffdcf0" opacity="0.83"/>
<circle cx="222" cy="845" r="1.19" fill="#ebf2ff" opacity="0.73"/>
<circle cx="132" cy="1015" r="0.58" fill="#ebf2ff" opacity="0.87"/>
<circle cx="271" cy="1563" r="0.52" fill="#b4d2ff" opacity="0.66"/>
<circle cx="50" cy="1160" r="0.43" fill="#ffdcf0" opacity="0.82"/>
<circle cx="765" cy="61" r="1.21" fill="#ebf2ff" opacity="0.77"/>
<circle cx="241" cy="1012" r="1.46" fill="#b4d2ff" opacity="0.94"/>
<circle cx="1220" cy="233" r="1.42" fill="#ebf2ff" opacity="0.80"/>
<circle cx="829" cy="1373" r="0.46" fill="#ebf2ff" opacity="0.81"/>
<circle cx="180" cy="965" r="1.0" fill="#ebf2ff" opacity="0.51"/>
<circle cx="518" cy="545" r="0.68" fill="#b4d2ff" opacity="0.99"/>
<circle cx="968" cy="754" r="1.11" fill="#ffdcf0" opacity="0.81"/>
<circle cx="1158" cy="1536" r="1.23" fill="#ebf2ff" opacity="0.66"/>
<circle cx="808" cy="1200" r="0.94" fill="#ffdcf0" opacity="0.97"/>
<circle cx="1161" cy="1737" r="0.99" fill="#ebf2ff" opacity="0.81"/>
<circle cx="755" cy="1249" r="0.56" fill="#ebf2ff" opacity="0.50"/>
<circle cx="964" cy="1451" r="1.33" fill="#ffdcf0" opacity="0.56"/>
<circle cx="1047" cy="747" r="1.0" fill="#ebf2ff" opacity="0.41"/>
<circle cx="399" cy="766" r="1.06" fill="#ffdcf0" opacity="0.63"/>
<circle cx="620" cy="520" r="200" fill="none" stroke="#3cdcff" stroke-width="2" opacity="0.8"/>
<circle cx="620" cy="520" r="150" fill="none" stroke="#3cdcff" stroke-width="2" opacity="0.8"/>
<circle cx="620" cy="520" r="100" fill="none" stroke="#3cdcff" stroke-width="2" opacity="0.8"/>
<g filter="url(#glow)"><line x1="420" y1="520" x2="820" y2="520" stroke="#3cdcff" stroke-width="2" stroke-linecap="round"/></g>
<g filter="url(#glow)"><line x1="620" y1="320" x2="620" y2="720" stroke="#3cdcff" stroke-width="2" stroke-linecap="round"/></g>
<g filter="url(#glow)"><circle cx="620" cy="520" r="14" fill="#ebf2ff"/></g>
<text x="620" y="780" font-family="Consolas, monospace" font-size="70" font-weight="bold" fill="#ebf2ff" text-anchor="middle" filter="url(#glow)">ORION</text>
<text x="620" y="860" font-family="Consolas, monospace" font-size="28" font-weight="normal" fill="#3cdcff" text-anchor="middle" filter="url(#glow)">CONSTELLATION PRIME</text>
</svg>