<?xml version="1.0" encoding="UTF-8"?>
<svg xmlns="http://www.w3.org/2000/svg" width="1240" height="1754" viewBox="0 0 1240 1754">
<defs><filter id="glow" x="-60%%" y="-60%%" width="220%%" height="220%%"><feGaussianBlur stdDeviation="8" result="b"/><feMerge><feMergeNode in="b"/><feMergeNode in="SourceGraphic"/></feMerge></filter>
<radialGradient id="vig" cx="50%%" cy="42%%" r="75%%"><stop offset="0%%" stop-color="#0a0420"/><stop offset="100%%" stop-color="#05010c"/></radialGradient></defs>
<rect width="1240" height="1754" fill="url(#vig)"/>
<circle cx="549" cy="919" r="1.23" fill="#ffdcf0" opacity="0.54"/>
<circle cx="882" cy="1032" r="1.21" fill="#ebf2ff" opacity="0.68"/>
<circle cx="930" cy="1449" r="1.0" fill="#ebf2ff" opacity="0.51"/>
<circle cx="592" cy="256" r="0.67" fill="#b4d2ff" opacity="0.99"/>
<circle cx="1181" cy="856" r="1.74" fill="#b4d2ff" opacity="0.43"/>
<circle cx="892" cy="1377" r="1.17" fill="#b4d2ff" opacity="0.60"/>
<circle cx="940" cy="569" r="0.54" fill="#b4d2ff" opacity="0.70"/>
<circle cx="384" cy="446" r="1.29" fill="#b4d2ff" opacity="0.57"/>
<circle cx="477" cy="864" r="1.74" fill="#b4d2ff" opacity="0.81"/>
<circle cx="387" cy="28" r="1.75" fill="#b4d2ff" opacity="0.55"/>
<circle cx="194" cy="1144" r="1.7" fill="#ebf2ff" opacity="0.90"/>
<circle cx="481" cy="432" r="0.54" fill="#ffdcf0" opacity="0.51"/>
<circle cx="107" cy="653" r="0.83" fill="#ffdcf0" opacity="0.85"/>
<circle cx="634" cy="1179" r="0.56" fill="#ebf2ff" opacity="0.51"/>
<circle cx="850" cy="1366" r="1.11" fill="#ebf2ff" opacity="0.68"/>
<circle cx="588" cy="536" r="1.37" fill="#ffdcf0" opacity="0.52"/>
<circle cx="172" cy="930" r="0.72" fill="#b4d2ff" opacity="0.61"/>
<circle cx="383" cy="1564" r="1.73" fill="#ffdcf0" opacity="0.50"/>
<circle cx="716" cy="1288" r="0.85" fill="#ffdcf0" opacity="0.66"/>
<circle cx="228" cy="900" r="0.83" fill="#b4d2ff" opacity="0.48"/>
<circle cx="850" cy="1712" r="0.46" fill="#ebf2ff" opacity="0.48"/>
<circle cx="359" cy="796" r="0.95" fill="#ebf2ff" opacity="0.67"/>
<circle cx="946" cy="426" r="0.99" fill="#ffdcf0" opacity="0.66"/>
<circle cx="874" cy="1251" r="1.07" fill="#b4d2ff" opacity="0.76"/>
<circle cx="990" cy="1564" r="0.68" fill="#b4d2ff" opacity="0.56"/>
<circle cx="1162" cy="1616" r="0.54" fill="#ffdcf0" opacity="0.80"/>
<circle cx="63" cy="1266" r="1.58" fill="#ebf2ff" opacity="0.89"/>
<circle cx="964" cy="1159" r="1.37" fill="#b4d2ff" opacity="0.57"/>
<circle cx="768" cy="329" r="0.59" fill="#b4d2ff" opacity="0.84"/>
<circle cx="21" cy="92" r="0.76" fill="#ebf2ff" opacity="0.98"/>
<circle cx="1128" cy="636" r="1.3" fill="#ffdcf0" opacity="0.96"/>
<circle cx="61" cy="1017" r="1.53" fill="#ebf2ff" opacity="0.65"/>
<circle cx="1239" cy="707" r="1.72" fill="#ebf2ff" opacity="0.58"/>
<circle cx="1223" cy="1592" r="1.65" fill="#b4d2ff" opacity="0.58"/>
<circle cx="305" cy="716" r="0.63" fill="#ffdcf0" opacity="0.65"/>
<circle cx="978" cy="893" r="1.71" fill="#ffdcf0" opacity="0.94"/>
<circle cx="643" cy="441" r="0.89" fill="#ffdcf0" opacity="0.76"/>
<circle cx="95" cy="592" r="1.06" fill="#ffdcf0" opacity="0.87"/>
<circle cx="920" cy="837" r="1.55" fill="#ffdcf0" opacity="0.54"/>
<circle cx="690" cy="90" r="0.75" fill="#ffdcf0" opacity="0.80"/>
<circle cx="999" cy="1419" r="1.57" fill="#ebf2ff" opacity="0.64"/>
<circle cx="275" cy="797" r="1.38" fill="#b4d2ff" opacity="0.74"/>
<circle cx="235" cy="1355" r="1.03" fill="#ffdcf0" opacity="0.42"/>
<circle cx="1130" cy="1034" r="1.42" fill="#b4d2ff" opacity="0.60"/>
<circle cx="539" cy="1173" r="1.34" fill="#ebf2ff" opacity="0.73"/>
<circle cx="536" cy="1423" r="0.85" fill="#ebf2ff" opacity="0.50"/>
<circle cx="701" cy="51" r="1.28" fill="#ebf2ff" opacity="0.85"/>
<circle cx="172" cy="1181" r="1.01" fill="#ebf2ff" opacity="0.56"/>
<circle cx="587" cy="425" r="1.18" fill="#b4d2ff" opacity="0.49"/>
<circle cx="171" cy="830" r="1.66" fill="#ebf2ff" opacity="0.76"/>
<circle cx="693" cy="788" r="1.12" fill="#ebf2ff" opacity="0.85"/>
<circle cx="891" cy="363" r="0.51" fill="#ebf2ff" opacity="0.56"/>
<circle cx="230" cy="114" r="0.73" fill="#b4d2ff" opacity="0.89"/>
<circle cx="582" cy="979" r="1.12" fill="#b4d2ff" opacity="0.52"/>
<circle cx="67" cy="720" r="0.46" fill="#ffdcf0" opacity="0.77"/>
<circle cx="929" cy="761" r="1.03" fill="#ffdcf0" opacity="0.72"/>
<circle cx="1111" cy="168" r="0.45" fill="#ebf2ff" opacity="0.41"/>
<circle cx="204" cy="90" r="0.59" fill="#ebf2ff" opacity="0.48"/>
<circle cx="420" cy="122" r="1.0" fill="#b4d2ff" opacity="0.99"/>
<circle cx="1022" cy="1022" r="0.51" fill="#ebf2ff" opacity="0.70"/>
<circle cx="877" cy="327" r="1.63" fill="#ffdcf0" opacity="0.83"/>
<circle cx="352" cy="74" r="1.36" fill="#b4d2ff" opacity="0.91"/>
<circle cx="508" cy="412" r="1.71" fill="#ebf2ff" opacity="0.64"/>
<circle cx="1083" cy="1133" r="0.53" fill="#b4d2ff" opacity="0.92"/>
<circle cx="386" cy="908" r="0.96" fill="#ebf2ff" opacity="0.42"/>
<circle cx="186" cy="330" r="0.52" fill="#ffdcf0" opacity="0.43"/>
<circle cx="776" cy="785" r="1.65" fill="#ebf2ff" opacity="0.49"/>
<circle cx="20" cy="1326" r="0.86" fill="#b4d2ff" opacity="0.95"/>
<circle cx="479" cy="1445" r="0.61" fill="#ebf2ff" opacity="0.60"/>
<circle cx="43" cy="1010" r="1.34" fill="#ebf2ff" opacity="0.45"/>
<circle cx="838" cy="745" r="1.02" fill="#ebf2ff" opacity="0.48"/>
<circle cx="871" cy="727" r="1.38" fill="#b4d2ff" opacity="0.74"/>
<circle cx="414" cy="1362" r="1.31" fill="#ebf2ff" opacity="0.47"/>
<circle cx="784" cy="1349" r="1.66" fill="#ebf2ff" opacity="0.43"/>
<circle cx="344" cy="1617" r="1.69" fill="#ffdcf0" opacity="0.98"/>
<circle cx="1105" cy="500" r="1.3" fill="#b4d2ff" opacity="0.46"/>
<circle cx="385" cy="417" r="1.6" fill="#ebf2ff" opacity="0.72"/>
<circle cx="222" cy="76" r="1.75" fill="#ebf2ff" opacity="0.74"/>
<circle cx="379" cy="582" r="0.82" fill="#ebf2ff" opacity="0.93"/>
<circle cx="505" cy="247" r="1.51" fill="#b4d2ff" opacity="0.96"/>
<circle cx="966" cy="313" r="0.55" fill="#ffdcf0" opacity="0.97"/>
<circle cx="499" cy="1464" r="1.5" fill="#b4d2ff" opacity="0.84"/>
<circle cx="1153" cy="1550" r="1.21" fill="#b4d2ff" opacity="0.47"/>
<circle cx="664" cy="396" r="0.47" fill="#b4d2ff" opacity="0.62"/>
<circle cx="241" cy="1340" r="0.54" fill="#ebf2ff" opacity="0.87"/>
<circle cx="841" cy="1043" r="1.08" fill="#ebf2ff" opacity="0.73"/>
<circle cx="669" cy="539" r="0.45" fill="#ffdcf0" opacity="0.59"/>
<circle cx="838" cy="944" r="0.66" fill="#b4d2ff" opacity="0.92"/>
<circle cx="226" cy="149" r="1.59" fill="#ffdcf0" opacity="0.46"/>
<circle cx="236" cy="807" r="1.17" fill="#b4d2ff" opacity="0.61"/>
<circle cx="1131" cy="1281" r="1.71" fill="#b4d2ff" opacity="0.78"/>
<circle cx="676" cy="1000" r="0.48" fill="#ebf2ff" opacity="0.56"/>
<circle cx="59" cy="1266" r="1.15" fill="#ffdcf0" opacity="0.95"/>
<circle cx="618" cy="451" r="1.29" fill="#ffdcf0" opacity="0.59"/>
<circle cx="131" cy="1746" r="1.29" fill="#ebf2ff" opacity="0.75"/>
<circle cx="1001" cy="50" r="0.49" fill="#b4d2ff" opacity="0.69"/>
<circle cx="536" cy="1204" r="1.52" fill="#ffdcf0" opacity="0.48"/>
<circle cx="599" cy="1737" r="0.44" fill="#b4d2ff" opacity="0.83"/>
<circle cx="1209" cy="128" r="1.77" fill="#ebf2ff" opacity="0.61"/>
<circle cx="476" cy="692" r="1.64" fill="#ebf2ff" opacity="0.44"/>
<circle cx="212" cy="1715" r="1.22" fill="#b4d2ff" opacity="0.59"/>
<circle cx="120" cy="85" r="0.75" fill="#b4d2ff" opacity="0.64"/>
<circle cx="561" cy="317" r="0.4" fill="#ebf2ff" opacity="0.59"/>
<circle cx="942" cy="782" r="0.8" fill="#b4d2ff" opacity="0.48"/>
<circle cx="1187" cy="970" r="1.57" fill="#ebf2ff" opacity="0.60"/>
<circle cx="473" cy="784" r="0.86" fill="#ebf2ff" opacity="0.98"/>
<circle cx="125" cy="122" r="0.56" fill="#ebf2ff" opacity="0.41"/>
<circle cx="905" cy="662" r="1.74" fill="#ebf2ff" opacity="0.70"/>
<circle cx="24" cy="1549" r="1.37" fill="#ebf2ff" opacity="0.83"/>
<circle cx="232" cy="705" r="1.37" fill="#b4d2ff" opacity="0.76"/>
<circle cx="200" cy="26" r="0.53" fill="#ebf2ff" opacity="0.94"/>
<circle cx="253" cy="1538" r="1.06" fill="#ebf2ff" opacity="0.58"/>
<circle cx="652" cy="1697" r="1.22" fill="#ffdcf0" opacity="0.57"/>
<circle cx="115" cy="568" r="0.92" fill="#ffdcf0" opacity="0.83"/>
<circle cx="180" cy="1609" r="0.66" fill="#ebf2ff" opacity="0.74"/>
<circle cx="62" cy="10" r="1.37" fill="#ffdcf0" opacity="0.49"/>
<circle cx="548" cy="1503" r="0.78" fill="#ffdcf0" opacity="0.74"/>
<circle cx="1070" cy="867" r="1.24" fill="#ffdcf0" opacity="0.52"/>
<circle cx="74" cy="779" r="1.6" fill="#ebf2ff" opacity="0.53"/>
<circle cx="544" cy="1234" r="1.41" fill="#b4d2ff" opacity="0.78"/>
<circle cx="853" cy="1362" r="1.34" fill="#b4d2ff" opacity="0.74"/>
<circle cx="736" cy="1281" r="0.54" fill="#ffdcf0" opacity="0.56"/>
<circle cx="603" cy="498" r="1.69" fill="#ebf2ff" opacity="0.83"/>
<circle cx="1021" cy="1675" r="1.06" fill="#ebf2ff" opacity="0.82"/>
<circle cx="654" cy="1679" r="1.08" fill="#b4d2ff" opacity="0.99"/>
<circle cx="94" cy="1226" r="0.48" fill="#ffdcf0" opacity="0.55"/>
<circle cx="439" cy="593" r="0.92" fill="#ffdcf0" opacity="0.53"/>
<circle cx="309" cy="1265" r="1.65" fill="#b4d2ff" opacity="1.00"/>
<circle cx="87" cy="1005" r="1.06" fill="#ebf2ff" opacity="0.97"/>
<circle cx="554" cy="563" r="1.52" fill="#b4d2ff" opacity="0.47"/>
<circle cx="440" cy="1050" r="0.54" fill="#ffdcf0" opacity="0.64"/>
<circle cx="154" cy="72" r="0.66" fill="#b4d2ff" opacity="0.99"/>
<circle cx="72" cy="964" r="0.87" fill="#ebf2ff" opacity="0.49"/>
<circle cx="1135" cy="1326" r="0.44" fill="#ffdcf0" opacity="0.60"/>
<circle cx="883" cy="1287" r="1.44" fill="#ebf2ff" opacity="0.54"/>
<circle cx="775" cy="486" r="0.8" fill="#b4d2ff" opacity="0.57"/>
<circle cx="308" cy="1374" r="0.98" fill="#b4d2ff" opacity="0.84"/>
<circle cx="938" cy="261" r="0.55" fill="#ebf2ff" opacity="0.62"/>
<circle cx="877" cy="1621" r="1.67" fill="#ebf2ff" opacity="0.64"/>
<circle cx="774" cy="1674" r="0.87" fill="#b4d2ff" opacity="0.82"/>
<circle cx="835" cy="675" r="1.69" fill="#ffdcf0" opacity="0.66"/>
<circle cx="456" cy="491" r="1.31" fill="#b4d2ff" opacity="0.74"/>
<circle cx="1229" cy="1338" r="0.95" fill="#ebf2ff" opacity="0.71"/>
<circle cx="637" cy="1129" r="0.59" fill="#b4d2ff" opacity="0.97"/>
<circle cx="1064" cy="677" r="1.55" fill="#ffdcf0" opacity="0.92"/>
<circle cx="584" cy="1735" r="0.59" fill="#b4d2ff" opacity="0.60"/>
<circle cx="743" cy="800" r="0.46" fill="#ffdcf0" opacity="0.52"/>
<circle cx="519" cy="1203" r="0.98" fill="#ffdcf0" opacity="0.42"/>
<circle cx="326" cy="433" r="1.09" fill="#ebf2ff" opacity="0.84"/>
<circle cx="786" cy="1391" r="0.51" fill="#ebf2ff" opacity="0.69"/>
<circle cx="641" cy="1297" r="1.08" fill="#ebf2ff" opacity="0.93"/>
<circle cx="344" cy="527" r="1.27" fill="#ffdcf0" opacity="0.71"/>
<circle cx="1001" cy="1083" r="0.92" fill="#ffdcf0" opacity="0.50"/>
<circle cx="280" cy="1580" r="1.14" fill="#ebf2ff" opacity="0.76"/>
<circle cx="1195" cy="1050" r="1.77" fill="#ebf2ff" opacity="0.95"/>
<circle cx="368" cy="287" r="1.63" fill="#ffdcf0" opacity="0.85"/>
<circle cx="212" cy="107" r="1.26" fill="#ebf2ff" opacity="0.80"/>
<circle cx="908" cy="1192" r="1.77" fill="#ebf2ff" opacity="0.83"/>
<circle cx="931" cy="994" r="1.6" fill="#ebf2ff" opacity="0.45"/>
<circle cx="842" cy="330" r="0.53" fill="#b4d2ff" opacity="0.83"/>
<circle cx="200" cy="479" r="0.79" fill="#ebf2ff" opacity="0.82"/>
<circle cx="1189" cy="1177" r="1.34" fill="#ffdcf0" opacity="0.59"/>
<circle cx="1168" cy="782" r="0.87" fill="#b4d2ff" opacity="0.86"/>
<circle cx="858" cy="310" r="1.69" fill="#ebf2ff" opacity="0.62"/>
<circle cx="575" cy="1127" r="1.23" fill="#ffdcf0" opacity="0.65"/>
<circle cx="294" cy="271" r="0.71" fill="#ffdcf0" opacity="0.73"/>
<circle cx="204" cy="844" r="1.34" fill="#ebf2ff" opacity="0.60"/>
<circle cx="1172" cy="778" r="1.41" fill="#b4d2ff" opacity="0.84"/>
<circle cx="644" cy="1572" r="0.42" fill="#b4d2ff" opacity="0.95"/>
<circle cx="156" cy="419" r="0.91" fill="#ffdcf0" opacity="0.99"/>
<circle cx="1152" cy="1606" r="0.75" fill="#ffdcf0" opacity="0.64"/>
<circle cx="820" cy="1524" r="1.44" fill="#ffdcf0" opacity="0.94"/>
<circle cx="99" cy="103" r="0.99" fill="#ebf2ff" opacity="0.68"/>
<circle cx="720" cy="1159" r="1.0" fill="#ffdcf0" opacity="0.62"/>
<circle cx="799" cy="1724" r="1.39" fill="#ebf2ff" opacity="0.81"/>
<circle cx="1128" cy="1494" r="0.52" fill="#ebf2ff" opacity="0.96"/>
<circle cx="548" cy="153" r="1.26" fill="#ebf2ff" opacity="0.87"/>
<circle cx="214" cy="52" r="0.42" fill="#ffdcf0" opacity="0.49"/>
<circle cx="555" cy="1165" r="0.44" fill="#b4d2ff" opacity="0.60"/>
<circle cx="250" cy="535" r="1.42" fill="#ebf2ff" opacity="0.76"/>
<circle cx="58" cy="1338" r="1.19" fill="#b4d2ff" opacity="0.45"/>
<circle cx="1151" cy="25" r="0.83" fill="#b4d2ff" opacity="0.69"/>
<circle cx="579" cy="604" r="0.8" fill="#ffdcf0" opacity="0.99"/>
<circle cx="791" cy="39" r="1.08" fill="#ebf2ff" opacity="0.99"/>
<circle cx="791" cy="552" r="0.96" fill="#ffdcf0" opacity="0.86"/>
<circle cx="221" cy="1069" r="1.63" fill="#b4d2ff" opacity="0.55"/>
<circle cx="197" cy="555" r="0.85" fill="#ebf2ff" opacity="0.49"/>
<circle cx="621" cy="613" r="0.51" fill="#ebf2ff" opacity="0.45"/>
<circle cx="199" cy="961" r="1.29" fill="#b4d2ff" opacity="0.41"/>
<circle cx="652" cy="560" r="0.87" fill="#ffdcf0" opacity="0.49"/>
<circle cx="17" cy="577" r="0.63" fill="#ebf2ff" opacity="0.56"/>
<circle cx="1092" cy="998" r="1.75" fill="#ffdcf0" opacity="0.41"/>
<circle cx="249" cy="272" r="0.84" fill="#ffdcf0" opacity="0.90"/>
<circle cx="978" cy="1092" r="1.27" fill="#ffdcf0" opacity="0.81"/>
<circle cx="1178" cy="1386" r="0.76" fill="#b4d2ff" opacity="0.85"/>
<circle cx="102" cy="361" r="1.53" fill="#b4d2ff" opacity="0.47"/>
<circle cx="852" cy="1135" r="0.76" fill="#ebf2ff" opacity="0.78"/>
<circle cx="1061" cy="1738" r="0.92" fill="#b4d2ff" opacity="0.75"/>
<circle cx="54" cy="466" r="0.46" fill="#b4d2ff" opacity="0.57"/>
<circle cx="174" cy="1228" r="1.08" fill="#b4d2ff" opacity="0.46"/>
<g filter="url(#glow)"><line x1="320" y1="360" x2="940" y2="300" stroke="#7884a5" stroke-width="2" stroke-linecap="round"/></g>
<g filter="url(#glow)"><line x1="320" y1="360" x2="780" y2="560" stroke="#7884a5" stroke-width="2" stroke-linecap="round"/></g>
<g filter="url(#glow)"><line x1="940" y1="300" x2="780" y2="560" stroke="#7884a5" stroke-width="2" stroke-linecap="round"/></g>
<g filter="url(#glow)"><line x1="780" y1="560" x2="360" y2="820" stroke="#7884a5" stroke-width="2" stroke-linecap="round"/></g>
<g filter="url(#glow)"><line x1="360" y1="820" x2="980" y2="880" stroke="#7884a5" stroke-width="2" stroke-linecap="round"/></g>
<g filter="url(#glow)"><line x1="980" y1="880" x2="620" y2="1080" stroke="#7884a5" stroke-width="2" stroke-linecap="round"/></g>
<g filter="url(#glow)"><line x1="620" y1="1080" x2="320" y2="360" stroke="#7884a5" stroke-width="2" stroke-linecap="round"/></g>
<g filter="url(#glow)"><line x1="780" y1="560" x2="620" y2="1080" stroke="#7884a5" stroke-width="2" stroke-linecap="round"/></g>
<g filter="url(#glow)"><line x1="940" y1="300" x2="980" y2="880" stroke="#7884a5" stroke-width="2" stroke-linecap="round"/></g>
<g filter="url(#glow)"><circle cx="320" cy="360" r="12" fill="#3cdcff"/></g>
<text x="320" y="394" font-family="Consolas, monospace" font-size="26" font-weight="bold" fill="#ebf2ff" text-anchor="middle" filter="url(#glow)">ORION</text>
<g filter="url(#glow)"><circle cx="940" cy="300" r="12" fill="#a56eff"/></g>
<text x="940" y="334" font-family="Consolas, monospace" font-size="26" font-weight="bold" fill="#ebf2ff" text-anchor="middle" filter="url(#glow)">ECHO</text>
<g filter="url(#glow)"><circle cx="780" cy="560" r="12" fill="#46ff78"/></g>
<text x="780" y="594" font-family="Consolas, monospace" font-size="26" font-weight="bold" fill="#ebf2ff" text-anchor="middle" filter="url(#glow)">VECTOR</text>
<g filter="url(#glow)"><circle cx="360" cy="820" r="12" fill="#ffd25a"/></g>
<text x="360" y="854" font-family="Consolas, monospace" font-size="26" font-weight="bold" fill="#ebf2ff" text-anchor="middle" filter="url(#glow)">NOVA</text>
<g filter="url(#glow)"><circle cx="980" cy="880" r="12" fill="#ff38d6"/></g>
<text x="980" y="914" font-family="Consolas, monospace" font-size="26" font-weight="bold" fill="#ebf2ff" text-anchor="middle" filter="url(#glow)">RAT</text>
<g filter="url(#glow)"><circle cx="620" cy="1080" r="12" fill="#3cdcff"/></g>
<text x="620" y="1114" font-family="Consolas, monospace" font-size="26" font-weight="bold" fill="#ebf2ff" text-anchor="middle" filter="url(#glow)">CAT</text>
<text x="620" y="1500" font-family="Consolas, monospace" font-size="40" font-weight="bold" fill="#3cdcff" text-anchor="middle" filter="url(#glow)">THE AGENT CONSTELLATION</text>
</svg>