<?xml version="1.0" encoding="UTF-8"?>
<svg xmlns="http://www.w3.org/2000/svg" width="1240" height="1754" viewBox="0 0 1240 1754">
<defs><filter id="glow" x="-60%%" y="-60%%" width="220%%" height="220%%"><feGaussianBlur stdDeviation="8" result="b"/><feMerge><feMergeNode in="b"/><feMergeNode in="SourceGraphic"/></feMerge></filter>
<radialGradient id="vig" cx="50%%" cy="42%%" r="75%%"><stop offset="0%%" stop-color="#0a0420"/><stop offset="100%%" stop-color="#05010c"/></radialGradient></defs>
<rect width="1240" height="1754" fill="url(#vig)"/>
<circle cx="486" cy="170" r="0.57" fill="#b4d2ff" opacity="0.72"/>
<circle cx="1041" cy="284" r="1.09" fill="#ebf2ff" opacity="0.98"/>
<circle cx="616" cy="1049" r="1.34" fill="#ffdcf0" opacity="0.40"/>
<circle cx="139" cy="741" r="1.14" fill="#ebf2ff" opacity="0.65"/>
<circle cx="681" cy="1147" r="1.26" fill="#b4d2ff" opacity="0.68"/>
<circle cx="1232" cy="59" r="0.76" fill="#b4d2ff" opacity="0.84"/>
<circle cx="528" cy="1611" r="0.92" fill="#b4d2ff" opacity="0.52"/>
<circle cx="199" cy="1332" r="0.69" fill="#b4d2ff" opacity="0.97"/>
<circle cx="976" cy="1542" r="0.62" fill="#b4d2ff" opacity="0.76"/>
<circle cx="490" cy="1197" r="0.45" fill="#b4d2ff" opacity="0.54"/>
<circle cx="371" cy="653" r="0.51" fill="#ebf2ff" opacity="0.95"/>
<circle cx="926" cy="522" r="0.87" fill="#b4d2ff" opacity="0.74"/>
<circle cx="696" cy="772" r="0.87" fill="#ebf2ff" opacity="0.62"/>
<circle cx="807" cy="744" r="1.39" fill="#b4d2ff" opacity="0.56"/>
<circle cx="449" cy="282" r="0.65" fill="#ebf2ff" opacity="0.86"/>
<circle cx="63" cy="1315" r="0.85" fill="#ebf2ff" opacity="0.76"/>
<circle cx="821" cy="979" r="0.93" fill="#ffdcf0" opacity="0.70"/>
<circle cx="886" cy="1254" r="0.62" fill="#b4d2ff" opacity="0.43"/>
<circle cx="1146" cy="1464" r="0.58" fill="#ebf2ff" opacity="0.52"/>
<circle cx="199" cy="1672" r="0.55" fill="#ffdcf0" opacity="0.94"/>
<circle cx="249" cy="213" r="1.05" fill="#b4d2ff" opacity="0.73"/>
<circle cx="263" cy="864" r="0.88" fill="#ebf2ff" opacity="0.49"/>
<circle cx="864" cy="1019" r="0.75" fill="#b4d2ff" opacity="0.71"/>
<circle cx="59" cy="520" r="1.0" fill="#ffdcf0" opacity="0.97"/>
<circle cx="649" cy="1131" r="0.82" fill="#ebf2ff" opacity="0.57"/>
<circle cx="175" cy="423" r="1.38" fill="#ebf2ff" opacity="0.91"/>
<circle cx="683" cy="469" r="1.21" fill="#ebf2ff" opacity="0.60"/>
<circle cx="621" cy="1584" r="0.64" fill="#ffdcf0" opacity="0.52"/>
<circle cx="815" cy="3" r="0.96" fill="#b4d2ff" opacity="0.89"/>
<circle cx="491" cy="297" r="1.23" fill="#ffdcf0" opacity="0.44"/>
<circle cx="512" cy="704" r="0.62" fill="#ebf2ff" opacity="0.61"/>
<circle cx="442" cy="409" r="1.41" fill="#ffdcf0" opacity="0.87"/>
<circle cx="930" cy="874" r="0.68" fill="#ffdcf0" opacity="0.94"/>
<circle cx="543" cy="1184" r="0.72" fill="#ffdcf0" opacity="0.52"/>
<circle cx="417" cy="637" r="0.78" fill="#ebf2ff" opacity="0.46"/>
<circle cx="816" cy="1465" r="0.78" fill="#ffdcf0" opacity="0.87"/>
<circle cx="487" cy="513" r="1.22" fill="#ffdcf0" opacity="0.75"/>
<circle cx="50" cy="354" r="1.36" fill="#b4d2ff" opacity="0.76"/>
<circle cx="457" cy="671" r="0.45" fill="#b4d2ff" opacity="0.76"/>
<circle cx="139" cy="833" r="1.38" fill="#ffdcf0" opacity="0.57"/>
<circle cx="996" cy="905" r="1.26" fill="#b4d2ff" opacity="1.00"/>
<circle cx="344" cy="988" r="0.4" fill="#ebf2ff" opacity="0.62"/>
<circle cx="981" cy="569" r="0.82" fill="#ffdcf0" opacity="0.52"/>
<circle cx="943" cy="768" r="0.92" fill="#ffdcf0" opacity="0.62"/>
<circle cx="22" cy="1115" r="0.76" fill="#ffdcf0" opacity="0.70"/>
<circle cx="924" cy="21" r="0.92" fill="#ffdcf0" opacity="0.58"/>
<circle cx="478" cy="1088" r="0.53" fill="#ebf2ff" opacity="0.51"/>
<circle cx="533" cy="642" r="0.49" fill="#ffdcf0" opacity="0.40"/>
<circle cx="453" cy="1731" r="0.77" fill="#ebf2ff" opacity="0.99"/>
<circle cx="108" cy="776" r="0.58" fill="#ffdcf0" opacity="0.85"/>
<circle cx="924" cy="713" r="1.22" fill="#ebf2ff" opacity="1.00"/>
<circle cx="889" cy="1335" r="1.0" fill="#ebf2ff" opacity="0.47"/>
<circle cx="186" cy="1363" r="0.49" fill="#ebf2ff" opacity="0.57"/>
<circle cx="681" cy="58" r="1.28" fill="#ebf2ff" opacity="0.83"/>
<circle cx="77" cy="252" r="0.96" fill="#ffdcf0" opacity="0.53"/>
<circle cx="911" cy="1523" r="1.48" fill="#b4d2ff" opacity="0.86"/>
<circle cx="29" cy="392" r="1.17" fill="#ffdcf0" opacity="0.98"/>
<circle cx="444" cy="1545" r="1.05" fill="#ebf2ff" opacity="0.82"/>
<circle cx="714" cy="911" r="0.97" fill="#b4d2ff" opacity="0.80"/>
<circle cx="279" cy="1269" r="1.2" fill="#b4d2ff" opacity="0.92"/>
<circle cx="576" cy="159" r="0.66" fill="#ebf2ff" opacity="0.73"/>
<circle cx="683" cy="897" r="1.29" fill="#ebf2ff" opacity="0.71"/>
<circle cx="1096" cy="651" r="0.72" fill="#b4d2ff" opacity="0.86"/>
<circle cx="351" cy="606" r="0.81" fill="#ebf2ff" opacity="0.96"/>
<circle cx="621" cy="1216" r="0.9" fill="#ffdcf0" opacity="0.66"/>
<circle cx="443" cy="205" r="1.09" fill="#ebf2ff" opacity="0.76"/>
<circle cx="746" cy="902" r="1.44" fill="#ffdcf0" opacity="0.78"/>
<circle cx="1084" cy="1352" r="1.31" fill="#b4d2ff" opacity="0.77"/>
<circle cx="1014" cy="1095" r="0.98" fill="#b4d2ff" opacity="0.87"/>
<circle cx="392" cy="1735" r="1.26" fill="#b4d2ff" opacity="0.45"/>
<circle cx="149" cy="1665" r="0.93" fill="#b4d2ff" opacity="0.64"/>
<circle cx="336" cy="414" r="1.34" fill="#ffdcf0" opacity="0.48"/>
<circle cx="1149" cy="1180" r="0.69" fill="#ebf2ff" opacity="0.96"/>
<circle cx="487" cy="931" r="1.14" fill="#ebf2ff" opacity="0.57"/>
<circle cx="393" cy="1664" r="0.97" fill="#ebf2ff" opacity="0.40"/>
<circle cx="900" cy="617" r="0.94" fill="#ebf2ff" opacity="0.95"/>
<circle cx="653" cy="1603" r="0.72" fill="#ffdcf0" opacity="0.68"/>
<circle cx="1156" cy="1016" r="0.74" fill="#ffdcf0" opacity="0.69"/>
<circle cx="492" cy="131" r="0.62" fill="#ebf2ff" opacity="0.62"/>
<circle cx="1098" cy="151" r="0.78" fill="#ebf2ff" opacity="0.51"/>
<circle cx="970" cy="323" r="0.76" fill="#ebf2ff" opacity="0.91"/>
<circle cx="1189" cy="1687" r="0.66" fill="#ffdcf0" opacity="0.71"/>
<circle cx="1101" cy="127" r="0.41" fill="#ffdcf0" opacity="0.54"/>
<circle cx="653" cy="290" r="1.03" fill="#ffdcf0" opacity="0.55"/>
<circle cx="714" cy="1186" r="0.81" fill="#b4d2ff" opacity="0.66"/>
<circle cx="829" cy="118" r="0.91" fill="#b4d2ff" opacity="0.90"/>
<circle cx="165" cy="546" r="0.86" fill="#b4d2ff" opacity="0.47"/>
<circle cx="369" cy="1635" r="1.28" fill="#b4d2ff" opacity="0.85"/>
<circle cx="811" cy="1411" r="1.37" fill="#ebf2ff" opacity="0.81"/>
<circle cx="889" cy="87" r="1.44" fill="#b4d2ff" opacity="0.51"/>
<circle cx="713" cy="846" r="1.21" fill="#ebf2ff" opacity="0.82"/>
<circle cx="730" cy="1040" r="0.66" fill="#b4d2ff" opacity="0.62"/>
<circle cx="727" cy="589" r="1.08" fill="#ebf2ff" opacity="0.62"/>
<circle cx="0" cy="501" r="1.11" fill="#b4d2ff" opacity="0.56"/>
<circle cx="281" cy="1167" r="1.36" fill="#ffdcf0" opacity="0.75"/>
<circle cx="906" cy="338" r="1.23" fill="#b4d2ff" opacity="0.90"/>
<circle cx="781" cy="1555" r="1.03" fill="#ebf2ff" opacity="0.52"/>
<circle cx="217" cy="431" r="1.36" fill="#ffdcf0" opacity="0.74"/>
<circle cx="730" cy="531" r="0.73" fill="#ffdcf0" opacity="0.80"/>
<circle cx="774" cy="1321" r="1.02" fill="#b4d2ff" opacity="0.49"/>
<circle cx="704" cy="1058" r="0.48" fill="#b4d2ff" opacity="0.93"/>
<circle cx="569" cy="1489" r="0.61" fill="#ffdcf0" opacity="0.82"/>
<circle cx="815" cy="1336" r="1.3" fill="#ffdcf0" opacity="0.83"/>
<circle cx="1071" cy="477" r="0.81" fill="#ffdcf0" opacity="0.56"/>
<circle cx="504" cy="1328" r="1.39" fill="#ebf2ff" opacity="0.99"/>
<circle cx="227" cy="1051" r="1.03" fill="#ebf2ff" opacity="0.79"/>
<circle cx="1187" cy="845" r="1.34" fill="#ebf2ff" opacity="0.97"/>
<circle cx="1119" cy="1196" r="1.43" fill="#b4d2ff" opacity="0.77"/>
<circle cx="256" cy="1522" r="0.98" fill="#b4d2ff" opacity="0.95"/>
<circle cx="353" cy="1647" r="1.49" fill="#ffdcf0" opacity="0.63"/>
<circle cx="1072" cy="491" r="0.58" fill="#ffdcf0" opacity="0.86"/>
<circle cx="983" cy="170" r="0.61" fill="#b4d2ff" opacity="0.41"/>
<circle cx="1157" cy="1376" r="0.94" fill="#ebf2ff" opacity="0.74"/>
<circle cx="886" cy="237" r="1.09" fill="#b4d2ff" opacity="0.65"/>
<circle cx="616" cy="727" r="1.1" fill="#ffdcf0" opacity="0.64"/>
<circle cx="158" cy="950" r="1.47" fill="#ebf2ff" opacity="0.81"/>
<circle cx="896" cy="1579" r="1.2" fill="#b4d2ff" opacity="0.73"/>
<circle cx="480" cy="1208" r="0.99" fill="#b4d2ff" opacity="0.85"/>
<circle cx="507" cy="1186" r="1.15" fill="#b4d2ff" opacity="0.92"/>
<circle cx="100" cy="154" r="1.47" fill="#ebf2ff" opacity="0.49"/>
<circle cx="461" cy="1339" r="1.27" fill="#ebf2ff" opacity="0.61"/>
<circle cx="1092" cy="1568" r="0.49" fill="#b4d2ff" opacity="0.99"/>
<circle cx="932" cy="47" r="1.39" fill="#b4d2ff" opacity="0.52"/>
<circle cx="849" cy="1598" r="0.64" fill="#ebf2ff" opacity="0.45"/>
<circle cx="138" cy="1149" r="1.19" fill="#ffdcf0" opacity="0.90"/>
<circle cx="403" cy="374" r="0.89" fill="#ebf2ff" opacity="0.81"/>
<circle cx="148" cy="995" r="0.95" fill="#ebf2ff" opacity="0.49"/>
<circle cx="461" cy="1319" r="0.93" fill="#b4d2ff" opacity="0.93"/>
<circle cx="124" cy="472" r="1.08" fill="#ffdcf0" opacity="0.61"/>
<circle cx="141" cy="1311" r="0.59" fill="#ffdcf0" opacity="0.77"/>
<circle cx="918" cy="225" r="1.25" fill="#ebf2ff" opacity="0.93"/>
<circle cx="355" cy="1715" r="0.55" fill="#b4d2ff" opacity="0.82"/>
<circle cx="1141" cy="1589" r="0.87" fill="#ebf2ff" opacity="0.58"/>
<circle cx="896" cy="511" r="0.95" fill="#ebf2ff" opacity="0.47"/>
<circle cx="1180" cy="1281" r="1.21" fill="#ebf2ff" opacity="0.54"/>
<circle cx="1080" cy="547" r="0.51" fill="#b4d2ff" opacity="0.88"/>
<circle cx="836" cy="54" r="1.06" fill="#ebf2ff" opacity="0.90"/>
<circle cx="1114" cy="857" r="1.35" fill="#ebf2ff" opacity="0.45"/>
<circle cx="969" cy="61" r="1.29" fill="#ebf2ff" opacity="0.54"/>
<circle cx="680" cy="962" r="1.41" fill="#b4d2ff" opacity="0.58"/>
<circle cx="620" cy="877" r="300" fill="none" stroke="#3cdcff" stroke-width="2" opacity="0.8"/>
<circle cx="620" cy="877" r="210" fill="none" stroke="#ff38d6" stroke-width="2" opacity="0.8"/>
<circle cx="620" cy="877" r="120" fill="none" stroke="#46ff78" stroke-width="2" opacity="0.8"/>
<g filter="url(#glow)"><polyline points="620,677 445,1017 795,1017" fill="none" stroke="#ff38d6" stroke-width="3" stroke-linecap="round" stroke-linejoin="round"/></g>
<g filter="url(#glow)"><circle cx="870" cy="877" r="10" fill="#ffd25a"/></g>
<g filter="url(#glow)"><circle cx="745" cy="1093" r="10" fill="#ffd25a"/></g>
<g filter="url(#glow)"><circle cx="496" cy="1093" r="10" fill="#ffd25a"/></g>
<g filter="url(#glow)"><circle cx="370" cy="877" r="10" fill="#ffd25a"/></g>
<g filter="url(#glow)"><circle cx="495" cy="661" r="10" fill="#ffd25a"/></g>
<g filter="url(#glow)"><circle cx="745" cy="661" r="10" fill="#ffd25a"/></g>
<g filter="url(#glow)"><circle cx="620" cy="877" r="16" fill="#ebf2ff"/></g>
<text x="620" y="867" font-family="Consolas, monospace" font-size="44" font-weight="bold" fill="#ebf2ff" text-anchor="middle">I₄</text>
<text x="620" y="1634" font-family="Consolas, monospace" font-size="34" font-weight="bold" fill="#ffd25a" text-anchor="middle" filter="url(#glow)">QUANTUM SYMBOLISM · J₃(ℕ)⊗ℍ</text>
</svg>